<?xml version="1.0" encoding="utf-8" standalone="no"?>
<!DOCTYPE svg PUBLIC "-//W3C//DTD SVG 1.1//EN"
  "http://www.w3.org/Graphics/SVG/1.1/DTD/svg11.dtd">
<svg xmlns:xlink="http://www.w3.org/1999/xlink" width="864pt" height="864pt" viewBox="0 0 864 864" xmlns="http://www.w3.org/2000/svg" version="1.1">
 <metadata>
  <rdf:RDF xmlns:dc="http://purl.org/dc/elements/1.1/" xmlns:cc="http://creativecommons.org/ns#" xmlns:rdf="http://www.w3.org/1999/02/22-rdf-syntax-ns#">
   <cc:Work>
    <dc:type rdf:resource="http://purl.org/dc/dcmitype/StillImage"/>
    <dc:date>2025-04-03T16:14:01.815779</dc:date>
    <dc:format>image/svg+xml</dc:format>
    <dc:creator>
     <cc:Agent>
      <dc:title>Matplotlib v3.10.1, https://matplotlib.org/</dc:title>
     </cc:Agent>
    </dc:creator>
   </cc:Work>
  </rdf:RDF>
 </metadata>
 <defs>
  <style type="text/css">*{stroke-linejoin: round; stroke-linecap: butt}</style>
 </defs>
 <g id="figure_1">
  <g id="patch_1">
   <path d="M 0 864 
L 864 864 
L 864 0 
L 0 0 
z
" style="fill: #ffffff"/>
  </g>
  <g id="axes_1">
   <g id="patch_2">
    <path d="M 50.6 331.872753 
L 847.084628 331.872753 
L 847.084628 27.6 
L 50.6 27.6 
z
" style="fill: #ffffff"/>
   </g>
   <g id="patch_3">
    <path d="M 63.874744 331.872753 
L 99.274061 331.872753 
L 99.274061 42.089179 
L 63.874744 42.089179 
z
" clip-path="url(#pb00b2c06bc)" style="fill: #6e2f9e"/>
   </g>
   <g id="patch_4">
    <path d="M 196.622182 331.872753 
L 232.021499 331.872753 
L 232.021499 84.047834 
L 196.622182 84.047834 
z
" clip-path="url(#pb00b2c06bc)" style="fill: #6e2f9e"/>
   </g>
   <g id="patch_5">
    <path d="M 329.36962 331.872753 
L 364.768937 331.872753 
L 364.768937 44.792784 
L 329.36962 44.792784 
z
" clip-path="url(#pb00b2c06bc)" style="fill: #6e2f9e"/>
   </g>
   <g id="patch_6">
    <path d="M 462.117058 331.872753 
L 497.516375 331.872753 
L 497.516375 92.646903 
L 462.117058 92.646903 
z
" clip-path="url(#pb00b2c06bc)" style="fill: #6e2f9e"/>
   </g>
   <g id="patch_7">
    <path d="M 594.864496 331.872753 
L 630.263813 331.872753 
L 630.263813 77.85237 
L 594.864496 77.85237 
z
" clip-path="url(#pb00b2c06bc)" style="fill: #6e2f9e"/>
   </g>
   <g id="patch_8">
    <path d="M 727.611934 331.872753 
L 763.011251 331.872753 
L 763.011251 94.642013 
L 727.611934 94.642013 
z
" clip-path="url(#pb00b2c06bc)" style="fill: #6e2f9e"/>
   </g>
   <g id="patch_9">
    <path d="M 99.274061 331.872753 
L 134.673377 331.872753 
L 134.673377 42.160766 
L 99.274061 42.160766 
z
" clip-path="url(#pb00b2c06bc)" style="fill: #d95656"/>
   </g>
   <g id="patch_10">
    <path d="M 232.021499 331.872753 
L 267.420815 331.872753 
L 267.420815 68.87488 
L 232.021499 68.87488 
z
" clip-path="url(#pb00b2c06bc)" style="fill: #d95656"/>
   </g>
   <g id="patch_11">
    <path d="M 364.768937 331.872753 
L 400.168254 331.872753 
L 400.168254 45.957653 
L 364.768937 45.957653 
z
" clip-path="url(#pb00b2c06bc)" style="fill: #d95656"/>
   </g>
   <g id="patch_12">
    <path d="M 497.516375 331.872753 
L 532.915692 331.872753 
L 532.915692 97.52563 
L 497.516375 97.52563 
z
" clip-path="url(#pb00b2c06bc)" style="fill: #d95656"/>
   </g>
   <g id="patch_13">
    <path d="M 630.263813 331.872753 
L 665.66313 331.872753 
L 665.66313 74.188615 
L 630.263813 74.188615 
z
" clip-path="url(#pb00b2c06bc)" style="fill: #d95656"/>
   </g>
   <g id="patch_14">
    <path d="M 763.011251 331.872753 
L 798.410568 331.872753 
L 798.410568 98.37793 
L 763.011251 98.37793 
z
" clip-path="url(#pb00b2c06bc)" style="fill: #d95656"/>
   </g>
   <g id="patch_15">
    <path d="M 134.673377 331.872753 
L 170.072694 331.872753 
L 170.072694 42.124977 
L 134.673377 42.124977 
z
" clip-path="url(#pb00b2c06bc)" style="fill: #e5a34c"/>
   </g>
   <g id="patch_16">
    <path d="M 267.420815 331.872753 
L 302.820132 331.872753 
L 302.820132 76.686698 
L 267.420815 76.686698 
z
" clip-path="url(#pb00b2c06bc)" style="fill: #e5a34c"/>
   </g>
   <g id="patch_17">
    <path d="M 400.168254 331.872753 
L 435.56757 331.872753 
L 435.56757 45.376403 
L 400.168254 45.376403 
z
" clip-path="url(#pb00b2c06bc)" style="fill: #e5a34c"/>
   </g>
   <g id="patch_18">
    <path d="M 532.915692 331.872753 
L 568.315008 331.872753 
L 568.315008 95.111397 
L 532.915692 95.111397 
z
" clip-path="url(#pb00b2c06bc)" style="fill: #e5a34c"/>
   </g>
   <g id="patch_19">
    <path d="M 665.66313 331.872753 
L 701.062446 331.872753 
L 701.062446 76.033608 
L 665.66313 76.033608 
z
" clip-path="url(#pb00b2c06bc)" style="fill: #e5a34c"/>
   </g>
   <g id="patch_20">
    <path d="M 798.410568 331.872753 
L 833.809884 331.872753 
L 833.809884 96.524797 
L 798.410568 96.524797 
z
" clip-path="url(#pb00b2c06bc)" style="fill: #e5a34c"/>
   </g>
   <g id="patch_21">
    <path d="M 116.973719 331.872753 
L 116.973719 331.872753 
L 116.973719 331.872753 
L 116.973719 331.872753 
z
" clip-path="url(#pb00b2c06bc)" style="fill: #6e2f9e"/>
   </g>
   <g id="patch_22">
    <path d="M 116.973719 331.872753 
L 116.973719 331.872753 
L 116.973719 331.872753 
L 116.973719 331.872753 
z
" clip-path="url(#pb00b2c06bc)" style="fill: #d95656"/>
   </g>
   <g id="patch_23">
    <path d="M 116.973719 331.872753 
L 116.973719 331.872753 
L 116.973719 331.872753 
L 116.973719 331.872753 
z
" clip-path="url(#pb00b2c06bc)" style="fill: #e5a34c"/>
   </g>
   <g id="matplotlib.axis_1">
    <g id="xtick_1">
     <g id="line2d_1">
      <defs>
       <path id="ma4300782d9" d="M 0 0 
L 0 3.5 
" style="stroke: #000000; stroke-width: 0.8"/>
      </defs>
      <g>
       <use xlink:href="#ma4300782d9" x="116.973719" y="331.872753" style="stroke: #000000; stroke-width: 0.8"/>
      </g>
     </g>
     <g id="text_1">
      <!-- BF -->
      <g transform="translate(114.4657 353.164044) rotate(-45) scale(0.1 -0.1)">
       <defs>
        <path id="DejaVuSans-42" d="M 1259 2228 
L 1259 519 
L 2272 519 
Q 2781 519 3026 730 
Q 3272 941 3272 1375 
Q 3272 1813 3026 2020 
Q 2781 2228 2272 2228 
L 1259 2228 
z
M 1259 4147 
L 1259 2741 
L 2194 2741 
Q 2656 2741 2882 2914 
Q 3109 3088 3109 3444 
Q 3109 3797 2882 3972 
Q 2656 4147 2194 4147 
L 1259 4147 
z
M 628 4666 
L 2241 4666 
Q 2963 4666 3353 4366 
Q 3744 4066 3744 3513 
Q 3744 3084 3544 2831 
Q 3344 2578 2956 2516 
Q 3422 2416 3680 2098 
Q 3938 1781 3938 1306 
Q 3938 681 3513 340 
Q 3088 0 2303 0 
L 628 0 
L 628 4666 
z
" transform="scale(0.015625)"/>
        <path id="DejaVuSans-46" d="M 628 4666 
L 3309 4666 
L 3309 4134 
L 1259 4134 
L 1259 2759 
L 3109 2759 
L 3109 2228 
L 1259 2228 
L 1259 0 
L 628 0 
L 628 4666 
z
" transform="scale(0.015625)"/>
       </defs>
       <use xlink:href="#DejaVuSans-42"/>
       <use xlink:href="#DejaVuSans-46" transform="translate(68.603516 0)"/>
      </g>
     </g>
    </g>
    <g id="xtick_2">
     <g id="line2d_2">
      <g>
       <use xlink:href="#ma4300782d9" x="249.721157" y="331.872753" style="stroke: #000000; stroke-width: 0.8"/>
      </g>
     </g>
     <g id="text_2">
      <!-- BM -->
      <g transform="translate(246.196119 355.198081) rotate(-45) scale(0.1 -0.1)">
       <defs>
        <path id="DejaVuSans-4d" d="M 628 4666 
L 1569 4666 
L 2759 1491 
L 3956 4666 
L 4897 4666 
L 4897 0 
L 4281 0 
L 4281 4097 
L 3078 897 
L 2444 897 
L 1241 4097 
L 1241 0 
L 628 0 
L 628 4666 
z
" transform="scale(0.015625)"/>
       </defs>
       <use xlink:href="#DejaVuSans-42"/>
       <use xlink:href="#DejaVuSans-4d" transform="translate(68.603516 0)"/>
      </g>
     </g>
    </g>
    <g id="xtick_3">
     <g id="line2d_3">
      <g>
       <use xlink:href="#ma4300782d9" x="382.468595" y="331.872753" style="stroke: #000000; stroke-width: 0.8"/>
      </g>
     </g>
     <g id="text_3">
      <!-- BN -->
      <g transform="translate(379.349039 354.387118) rotate(-45) scale(0.1 -0.1)">
       <defs>
        <path id="DejaVuSans-4e" d="M 628 4666 
L 1478 4666 
L 3547 763 
L 3547 4666 
L 4159 4666 
L 4159 0 
L 3309 0 
L 1241 3903 
L 1241 0 
L 628 0 
L 628 4666 
z
" transform="scale(0.015625)"/>
       </defs>
       <use xlink:href="#DejaVuSans-42"/>
       <use xlink:href="#DejaVuSans-4e" transform="translate(68.603516 0)"/>
      </g>
     </g>
    </g>
    <g id="xtick_4">
     <g id="line2d_4">
      <g>
       <use xlink:href="#ma4300782d9" x="515.216033" y="331.872753" style="stroke: #000000; stroke-width: 0.8"/>
      </g>
     </g>
     <g id="text_4">
      <!-- CI -->
      <g transform="translate(513.655426 351.269219) rotate(-45) scale(0.1 -0.1)">
       <defs>
        <path id="DejaVuSans-43" d="M 4122 4306 
L 4122 3641 
Q 3803 3938 3442 4084 
Q 3081 4231 2675 4231 
Q 1875 4231 1450 3742 
Q 1025 3253 1025 2328 
Q 1025 1406 1450 917 
Q 1875 428 2675 428 
Q 3081 428 3442 575 
Q 3803 722 4122 1019 
L 4122 359 
Q 3791 134 3420 21 
Q 3050 -91 2638 -91 
Q 1578 -91 968 557 
Q 359 1206 359 2328 
Q 359 3453 968 4101 
Q 1578 4750 2638 4750 
Q 3056 4750 3426 4639 
Q 3797 4528 4122 4306 
z
" transform="scale(0.015625)"/>
        <path id="DejaVuSans-49" d="M 628 4666 
L 1259 4666 
L 1259 0 
L 628 0 
L 628 4666 
z
" transform="scale(0.015625)"/>
       </defs>
       <use xlink:href="#DejaVuSans-43"/>
       <use xlink:href="#DejaVuSans-49" transform="translate(69.824219 0)"/>
      </g>
     </g>
    </g>
    <g id="xtick_5">
     <g id="line2d_5">
      <g>
       <use xlink:href="#ma4300782d9" x="647.963471" y="331.872753" style="stroke: #000000; stroke-width: 0.8"/>
      </g>
     </g>
     <g id="text_5">
      <!-- Mirai -->
      <g transform="translate(641.279655 361.515638) rotate(-45) scale(0.1 -0.1)">
       <defs>
        <path id="DejaVuSans-69" d="M 603 3500 
L 1178 3500 
L 1178 0 
L 603 0 
L 603 3500 
z
M 603 4863 
L 1178 4863 
L 1178 4134 
L 603 4134 
L 603 4863 
z
" transform="scale(0.015625)"/>
        <path id="DejaVuSans-72" d="M 2631 2963 
Q 2534 3019 2420 3045 
Q 2306 3072 2169 3072 
Q 1681 3072 1420 2755 
Q 1159 2438 1159 1844 
L 1159 0 
L 581 0 
L 581 3500 
L 1159 3500 
L 1159 2956 
Q 1341 3275 1631 3429 
Q 1922 3584 2338 3584 
Q 2397 3584 2469 3576 
Q 2541 3569 2628 3553 
L 2631 2963 
z
" transform="scale(0.015625)"/>
        <path id="DejaVuSans-61" d="M 2194 1759 
Q 1497 1759 1228 1600 
Q 959 1441 959 1056 
Q 959 750 1161 570 
Q 1363 391 1709 391 
Q 2188 391 2477 730 
Q 2766 1069 2766 1631 
L 2766 1759 
L 2194 1759 
z
M 3341 1997 
L 3341 0 
L 2766 0 
L 2766 531 
Q 2569 213 2275 61 
Q 1981 -91 1556 -91 
Q 1019 -91 701 211 
Q 384 513 384 1019 
Q 384 1609 779 1909 
Q 1175 2209 1959 2209 
L 2766 2209 
L 2766 2266 
Q 2766 2663 2505 2880 
Q 2244 3097 1772 3097 
Q 1472 3097 1187 3025 
Q 903 2953 641 2809 
L 641 3341 
Q 956 3463 1253 3523 
Q 1550 3584 1831 3584 
Q 2591 3584 2966 3190 
Q 3341 2797 3341 1997 
z
" transform="scale(0.015625)"/>
       </defs>
       <use xlink:href="#DejaVuSans-4d"/>
       <use xlink:href="#DejaVuSans-69" transform="translate(86.279297 0)"/>
       <use xlink:href="#DejaVuSans-72" transform="translate(114.0625 0)"/>
       <use xlink:href="#DejaVuSans-61" transform="translate(155.175781 0)"/>
       <use xlink:href="#DejaVuSans-69" transform="translate(216.455078 0)"/>
      </g>
     </g>
    </g>
    <g id="xtick_6">
     <g id="line2d_6">
      <g>
       <use xlink:href="#ma4300782d9" x="780.710909" y="331.872753" style="stroke: #000000; stroke-width: 0.8"/>
      </g>
     </g>
     <g id="text_6">
      <!-- XSS -->
      <g transform="translate(775.751218 358.067388) rotate(-45) scale(0.1 -0.1)">
       <defs>
        <path id="DejaVuSans-58" d="M 403 4666 
L 1081 4666 
L 2241 2931 
L 3406 4666 
L 4084 4666 
L 2584 2425 
L 4184 0 
L 3506 0 
L 2194 1984 
L 872 0 
L 191 0 
L 1856 2491 
L 403 4666 
z
" transform="scale(0.015625)"/>
        <path id="DejaVuSans-53" d="M 3425 4513 
L 3425 3897 
Q 3066 4069 2747 4153 
Q 2428 4238 2131 4238 
Q 1616 4238 1336 4038 
Q 1056 3838 1056 3469 
Q 1056 3159 1242 3001 
Q 1428 2844 1947 2747 
L 2328 2669 
Q 3034 2534 3370 2195 
Q 3706 1856 3706 1288 
Q 3706 609 3251 259 
Q 2797 -91 1919 -91 
Q 1588 -91 1214 -16 
Q 841 59 441 206 
L 441 856 
Q 825 641 1194 531 
Q 1563 422 1919 422 
Q 2459 422 2753 634 
Q 3047 847 3047 1241 
Q 3047 1584 2836 1778 
Q 2625 1972 2144 2069 
L 1759 2144 
Q 1053 2284 737 2584 
Q 422 2884 422 3419 
Q 422 4038 858 4394 
Q 1294 4750 2059 4750 
Q 2388 4750 2728 4690 
Q 3069 4631 3425 4513 
z
" transform="scale(0.015625)"/>
       </defs>
       <use xlink:href="#DejaVuSans-58"/>
       <use xlink:href="#DejaVuSans-53" transform="translate(68.505859 0)"/>
       <use xlink:href="#DejaVuSans-53" transform="translate(131.982422 0)"/>
      </g>
     </g>
    </g>
    <g id="text_7">
     <!-- Predicted Class -->
     <g transform="translate(402.986377 376.104324) scale(0.12 -0.12)">
      <defs>
       <path id="DejaVuSans-50" d="M 1259 4147 
L 1259 2394 
L 2053 2394 
Q 2494 2394 2734 2622 
Q 2975 2850 2975 3272 
Q 2975 3691 2734 3919 
Q 2494 4147 2053 4147 
L 1259 4147 
z
M 628 4666 
L 2053 4666 
Q 2838 4666 3239 4311 
Q 3641 3956 3641 3272 
Q 3641 2581 3239 2228 
Q 2838 1875 2053 1875 
L 1259 1875 
L 1259 0 
L 628 0 
L 628 4666 
z
" transform="scale(0.015625)"/>
       <path id="DejaVuSans-65" d="M 3597 1894 
L 3597 1613 
L 953 1613 
Q 991 1019 1311 708 
Q 1631 397 2203 397 
Q 2534 397 2845 478 
Q 3156 559 3463 722 
L 3463 178 
Q 3153 47 2828 -22 
Q 2503 -91 2169 -91 
Q 1331 -91 842 396 
Q 353 884 353 1716 
Q 353 2575 817 3079 
Q 1281 3584 2069 3584 
Q 2775 3584 3186 3129 
Q 3597 2675 3597 1894 
z
M 3022 2063 
Q 3016 2534 2758 2815 
Q 2500 3097 2075 3097 
Q 1594 3097 1305 2825 
Q 1016 2553 972 2059 
L 3022 2063 
z
" transform="scale(0.015625)"/>
       <path id="DejaVuSans-64" d="M 2906 2969 
L 2906 4863 
L 3481 4863 
L 3481 0 
L 2906 0 
L 2906 525 
Q 2725 213 2448 61 
Q 2172 -91 1784 -91 
Q 1150 -91 751 415 
Q 353 922 353 1747 
Q 353 2572 751 3078 
Q 1150 3584 1784 3584 
Q 2172 3584 2448 3432 
Q 2725 3281 2906 2969 
z
M 947 1747 
Q 947 1113 1208 752 
Q 1469 391 1925 391 
Q 2381 391 2643 752 
Q 2906 1113 2906 1747 
Q 2906 2381 2643 2742 
Q 2381 3103 1925 3103 
Q 1469 3103 1208 2742 
Q 947 2381 947 1747 
z
" transform="scale(0.015625)"/>
       <path id="DejaVuSans-63" d="M 3122 3366 
L 3122 2828 
Q 2878 2963 2633 3030 
Q 2388 3097 2138 3097 
Q 1578 3097 1268 2742 
Q 959 2388 959 1747 
Q 959 1106 1268 751 
Q 1578 397 2138 397 
Q 2388 397 2633 464 
Q 2878 531 3122 666 
L 3122 134 
Q 2881 22 2623 -34 
Q 2366 -91 2075 -91 
Q 1284 -91 818 406 
Q 353 903 353 1747 
Q 353 2603 823 3093 
Q 1294 3584 2113 3584 
Q 2378 3584 2631 3529 
Q 2884 3475 3122 3366 
z
" transform="scale(0.015625)"/>
       <path id="DejaVuSans-74" d="M 1172 4494 
L 1172 3500 
L 2356 3500 
L 2356 3053 
L 1172 3053 
L 1172 1153 
Q 1172 725 1289 603 
Q 1406 481 1766 481 
L 2356 481 
L 2356 0 
L 1766 0 
Q 1100 0 847 248 
Q 594 497 594 1153 
L 594 3053 
L 172 3053 
L 172 3500 
L 594 3500 
L 594 4494 
L 1172 4494 
z
" transform="scale(0.015625)"/>
       <path id="DejaVuSans-20" transform="scale(0.015625)"/>
       <path id="DejaVuSans-6c" d="M 603 4863 
L 1178 4863 
L 1178 0 
L 603 0 
L 603 4863 
z
" transform="scale(0.015625)"/>
       <path id="DejaVuSans-73" d="M 2834 3397 
L 2834 2853 
Q 2591 2978 2328 3040 
Q 2066 3103 1784 3103 
Q 1356 3103 1142 2972 
Q 928 2841 928 2578 
Q 928 2378 1081 2264 
Q 1234 2150 1697 2047 
L 1894 2003 
Q 2506 1872 2764 1633 
Q 3022 1394 3022 966 
Q 3022 478 2636 193 
Q 2250 -91 1575 -91 
Q 1294 -91 989 -36 
Q 684 19 347 128 
L 347 722 
Q 666 556 975 473 
Q 1284 391 1588 391 
Q 1994 391 2212 530 
Q 2431 669 2431 922 
Q 2431 1156 2273 1281 
Q 2116 1406 1581 1522 
L 1381 1569 
Q 847 1681 609 1914 
Q 372 2147 372 2553 
Q 372 3047 722 3315 
Q 1072 3584 1716 3584 
Q 2034 3584 2315 3537 
Q 2597 3491 2834 3397 
z
" transform="scale(0.015625)"/>
      </defs>
      <use xlink:href="#DejaVuSans-50"/>
      <use xlink:href="#DejaVuSans-72" transform="translate(58.552734 0)"/>
      <use xlink:href="#DejaVuSans-65" transform="translate(97.416016 0)"/>
      <use xlink:href="#DejaVuSans-64" transform="translate(158.939453 0)"/>
      <use xlink:href="#DejaVuSans-69" transform="translate(222.416016 0)"/>
      <use xlink:href="#DejaVuSans-63" transform="translate(250.199219 0)"/>
      <use xlink:href="#DejaVuSans-74" transform="translate(305.179688 0)"/>
      <use xlink:href="#DejaVuSans-65" transform="translate(344.388672 0)"/>
      <use xlink:href="#DejaVuSans-64" transform="translate(405.912109 0)"/>
      <use xlink:href="#DejaVuSans-20" transform="translate(469.388672 0)"/>
      <use xlink:href="#DejaVuSans-43" transform="translate(501.175781 0)"/>
      <use xlink:href="#DejaVuSans-6c" transform="translate(571 0)"/>
      <use xlink:href="#DejaVuSans-61" transform="translate(598.783203 0)"/>
      <use xlink:href="#DejaVuSans-73" transform="translate(660.0625 0)"/>
      <use xlink:href="#DejaVuSans-73" transform="translate(712.162109 0)"/>
     </g>
    </g>
   </g>
   <g id="matplotlib.axis_2">
    <g id="ytick_1">
     <g id="line2d_7">
      <defs>
       <path id="mdab6080482" d="M 0 0 
L -3.5 0 
" style="stroke: #000000; stroke-width: 0.8"/>
      </defs>
      <g>
       <use xlink:href="#mdab6080482" x="50.6" y="331.872753" style="stroke: #000000; stroke-width: 0.8"/>
      </g>
     </g>
     <g id="text_8">
      <!-- 0.0 -->
      <g transform="translate(27.696875 335.671972) scale(0.1 -0.1)">
       <defs>
        <path id="DejaVuSans-30" d="M 2034 4250 
Q 1547 4250 1301 3770 
Q 1056 3291 1056 2328 
Q 1056 1369 1301 889 
Q 1547 409 2034 409 
Q 2525 409 2770 889 
Q 3016 1369 3016 2328 
Q 3016 3291 2770 3770 
Q 2525 4250 2034 4250 
z
M 2034 4750 
Q 2819 4750 3233 4129 
Q 3647 3509 3647 2328 
Q 3647 1150 3233 529 
Q 2819 -91 2034 -91 
Q 1250 -91 836 529 
Q 422 1150 422 2328 
Q 422 3509 836 4129 
Q 1250 4750 2034 4750 
z
" transform="scale(0.015625)"/>
        <path id="DejaVuSans-2e" d="M 684 794 
L 1344 794 
L 1344 0 
L 684 0 
L 684 794 
z
" transform="scale(0.015625)"/>
       </defs>
       <use xlink:href="#DejaVuSans-30"/>
       <use xlink:href="#DejaVuSans-2e" transform="translate(63.623047 0)"/>
       <use xlink:href="#DejaVuSans-30" transform="translate(95.410156 0)"/>
      </g>
     </g>
    </g>
    <g id="ytick_2">
     <g id="line2d_8">
      <g>
       <use xlink:href="#mdab6080482" x="50.6" y="273.613731" style="stroke: #000000; stroke-width: 0.8"/>
      </g>
     </g>
     <g id="text_9">
      <!-- 0.2 -->
      <g transform="translate(27.696875 277.412949) scale(0.1 -0.1)">
       <defs>
        <path id="DejaVuSans-32" d="M 1228 531 
L 3431 531 
L 3431 0 
L 469 0 
L 469 531 
Q 828 903 1448 1529 
Q 2069 2156 2228 2338 
Q 2531 2678 2651 2914 
Q 2772 3150 2772 3378 
Q 2772 3750 2511 3984 
Q 2250 4219 1831 4219 
Q 1534 4219 1204 4116 
Q 875 4013 500 3803 
L 500 4441 
Q 881 4594 1212 4672 
Q 1544 4750 1819 4750 
Q 2544 4750 2975 4387 
Q 3406 4025 3406 3419 
Q 3406 3131 3298 2873 
Q 3191 2616 2906 2266 
Q 2828 2175 2409 1742 
Q 1991 1309 1228 531 
z
" transform="scale(0.015625)"/>
       </defs>
       <use xlink:href="#DejaVuSans-30"/>
       <use xlink:href="#DejaVuSans-2e" transform="translate(63.623047 0)"/>
       <use xlink:href="#DejaVuSans-32" transform="translate(95.410156 0)"/>
      </g>
     </g>
    </g>
    <g id="ytick_3">
     <g id="line2d_9">
      <g>
       <use xlink:href="#mdab6080482" x="50.6" y="215.354708" style="stroke: #000000; stroke-width: 0.8"/>
      </g>
     </g>
     <g id="text_10">
      <!-- 0.4 -->
      <g transform="translate(27.696875 219.153927) scale(0.1 -0.1)">
       <defs>
        <path id="DejaVuSans-34" d="M 2419 4116 
L 825 1625 
L 2419 1625 
L 2419 4116 
z
M 2253 4666 
L 3047 4666 
L 3047 1625 
L 3713 1625 
L 3713 1100 
L 3047 1100 
L 3047 0 
L 2419 0 
L 2419 1100 
L 313 1100 
L 313 1709 
L 2253 4666 
z
" transform="scale(0.015625)"/>
       </defs>
       <use xlink:href="#DejaVuSans-30"/>
       <use xlink:href="#DejaVuSans-2e" transform="translate(63.623047 0)"/>
       <use xlink:href="#DejaVuSans-34" transform="translate(95.410156 0)"/>
      </g>
     </g>
    </g>
    <g id="ytick_4">
     <g id="line2d_10">
      <g>
       <use xlink:href="#mdab6080482" x="50.6" y="157.095685" style="stroke: #000000; stroke-width: 0.8"/>
      </g>
     </g>
     <g id="text_11">
      <!-- 0.6 -->
      <g transform="translate(27.696875 160.894904) scale(0.1 -0.1)">
       <defs>
        <path id="DejaVuSans-36" d="M 2113 2584 
Q 1688 2584 1439 2293 
Q 1191 2003 1191 1497 
Q 1191 994 1439 701 
Q 1688 409 2113 409 
Q 2538 409 2786 701 
Q 3034 994 3034 1497 
Q 3034 2003 2786 2293 
Q 2538 2584 2113 2584 
z
M 3366 4563 
L 3366 3988 
Q 3128 4100 2886 4159 
Q 2644 4219 2406 4219 
Q 1781 4219 1451 3797 
Q 1122 3375 1075 2522 
Q 1259 2794 1537 2939 
Q 1816 3084 2150 3084 
Q 2853 3084 3261 2657 
Q 3669 2231 3669 1497 
Q 3669 778 3244 343 
Q 2819 -91 2113 -91 
Q 1303 -91 875 529 
Q 447 1150 447 2328 
Q 447 3434 972 4092 
Q 1497 4750 2381 4750 
Q 2619 4750 2861 4703 
Q 3103 4656 3366 4563 
z
" transform="scale(0.015625)"/>
       </defs>
       <use xlink:href="#DejaVuSans-30"/>
       <use xlink:href="#DejaVuSans-2e" transform="translate(63.623047 0)"/>
       <use xlink:href="#DejaVuSans-36" transform="translate(95.410156 0)"/>
      </g>
     </g>
    </g>
    <g id="ytick_5">
     <g id="line2d_11">
      <g>
       <use xlink:href="#mdab6080482" x="50.6" y="98.836663" style="stroke: #000000; stroke-width: 0.8"/>
      </g>
     </g>
     <g id="text_12">
      <!-- 0.8 -->
      <g transform="translate(27.696875 102.635881) scale(0.1 -0.1)">
       <defs>
        <path id="DejaVuSans-38" d="M 2034 2216 
Q 1584 2216 1326 1975 
Q 1069 1734 1069 1313 
Q 1069 891 1326 650 
Q 1584 409 2034 409 
Q 2484 409 2743 651 
Q 3003 894 3003 1313 
Q 3003 1734 2745 1975 
Q 2488 2216 2034 2216 
z
M 1403 2484 
Q 997 2584 770 2862 
Q 544 3141 544 3541 
Q 544 4100 942 4425 
Q 1341 4750 2034 4750 
Q 2731 4750 3128 4425 
Q 3525 4100 3525 3541 
Q 3525 3141 3298 2862 
Q 3072 2584 2669 2484 
Q 3125 2378 3379 2068 
Q 3634 1759 3634 1313 
Q 3634 634 3220 271 
Q 2806 -91 2034 -91 
Q 1263 -91 848 271 
Q 434 634 434 1313 
Q 434 1759 690 2068 
Q 947 2378 1403 2484 
z
M 1172 3481 
Q 1172 3119 1398 2916 
Q 1625 2713 2034 2713 
Q 2441 2713 2670 2916 
Q 2900 3119 2900 3481 
Q 2900 3844 2670 4047 
Q 2441 4250 2034 4250 
Q 1625 4250 1398 4047 
Q 1172 3844 1172 3481 
z
" transform="scale(0.015625)"/>
       </defs>
       <use xlink:href="#DejaVuSans-30"/>
       <use xlink:href="#DejaVuSans-2e" transform="translate(63.623047 0)"/>
       <use xlink:href="#DejaVuSans-38" transform="translate(95.410156 0)"/>
      </g>
     </g>
    </g>
    <g id="ytick_6">
     <g id="line2d_12">
      <g>
       <use xlink:href="#mdab6080482" x="50.6" y="40.57764" style="stroke: #000000; stroke-width: 0.8"/>
      </g>
     </g>
     <g id="text_13">
      <!-- 1.0 -->
      <g transform="translate(27.696875 44.376859) scale(0.1 -0.1)">
       <defs>
        <path id="DejaVuSans-31" d="M 794 531 
L 1825 531 
L 1825 4091 
L 703 3866 
L 703 4441 
L 1819 4666 
L 2450 4666 
L 2450 531 
L 3481 531 
L 3481 0 
L 794 0 
L 794 531 
z
" transform="scale(0.015625)"/>
       </defs>
       <use xlink:href="#DejaVuSans-31"/>
       <use xlink:href="#DejaVuSans-2e" transform="translate(63.623047 0)"/>
       <use xlink:href="#DejaVuSans-30" transform="translate(95.410156 0)"/>
      </g>
     </g>
    </g>
    <g id="text_14">
     <!-- Metric Value -->
     <g transform="translate(21.20125 216.774189) rotate(-90) scale(0.12 -0.12)">
      <defs>
       <path id="DejaVuSans-56" d="M 1831 0 
L 50 4666 
L 709 4666 
L 2188 738 
L 3669 4666 
L 4325 4666 
L 2547 0 
L 1831 0 
z
" transform="scale(0.015625)"/>
       <path id="DejaVuSans-75" d="M 544 1381 
L 544 3500 
L 1119 3500 
L 1119 1403 
Q 1119 906 1312 657 
Q 1506 409 1894 409 
Q 2359 409 2629 706 
Q 2900 1003 2900 1516 
L 2900 3500 
L 3475 3500 
L 3475 0 
L 2900 0 
L 2900 538 
Q 2691 219 2414 64 
Q 2138 -91 1772 -91 
Q 1169 -91 856 284 
Q 544 659 544 1381 
z
M 1991 3584 
L 1991 3584 
z
" transform="scale(0.015625)"/>
      </defs>
      <use xlink:href="#DejaVuSans-4d"/>
      <use xlink:href="#DejaVuSans-65" transform="translate(86.279297 0)"/>
      <use xlink:href="#DejaVuSans-74" transform="translate(147.802734 0)"/>
      <use xlink:href="#DejaVuSans-72" transform="translate(187.011719 0)"/>
      <use xlink:href="#DejaVuSans-69" transform="translate(228.125 0)"/>
      <use xlink:href="#DejaVuSans-63" transform="translate(255.908203 0)"/>
      <use xlink:href="#DejaVuSans-20" transform="translate(310.888672 0)"/>
      <use xlink:href="#DejaVuSans-56" transform="translate(342.675781 0)"/>
      <use xlink:href="#DejaVuSans-61" transform="translate(403.333984 0)"/>
      <use xlink:href="#DejaVuSans-6c" transform="translate(464.613281 0)"/>
      <use xlink:href="#DejaVuSans-75" transform="translate(492.396484 0)"/>
      <use xlink:href="#DejaVuSans-65" transform="translate(555.775391 0)"/>
     </g>
    </g>
   </g>
   <g id="line2d_13">
    <path clip-path="url(#pb00b2c06bc)" style="fill: none; stroke: #424242; stroke-width: 2.25; stroke-linecap: square"/>
   </g>
   <g id="line2d_14">
    <path clip-path="url(#pb00b2c06bc)" style="fill: none; stroke: #424242; stroke-width: 2.25; stroke-linecap: square"/>
   </g>
   <g id="line2d_15">
    <path clip-path="url(#pb00b2c06bc)" style="fill: none; stroke: #424242; stroke-width: 2.25; stroke-linecap: square"/>
   </g>
   <g id="line2d_16">
    <path clip-path="url(#pb00b2c06bc)" style="fill: none; stroke: #424242; stroke-width: 2.25; stroke-linecap: square"/>
   </g>
   <g id="line2d_17">
    <path clip-path="url(#pb00b2c06bc)" style="fill: none; stroke: #424242; stroke-width: 2.25; stroke-linecap: square"/>
   </g>
   <g id="line2d_18">
    <path clip-path="url(#pb00b2c06bc)" style="fill: none; stroke: #424242; stroke-width: 2.25; stroke-linecap: square"/>
   </g>
   <g id="line2d_19">
    <path clip-path="url(#pb00b2c06bc)" style="fill: none; stroke: #424242; stroke-width: 2.25; stroke-linecap: square"/>
   </g>
   <g id="line2d_20">
    <path clip-path="url(#pb00b2c06bc)" style="fill: none; stroke: #424242; stroke-width: 2.25; stroke-linecap: square"/>
   </g>
   <g id="line2d_21">
    <path clip-path="url(#pb00b2c06bc)" style="fill: none; stroke: #424242; stroke-width: 2.25; stroke-linecap: square"/>
   </g>
   <g id="line2d_22">
    <path clip-path="url(#pb00b2c06bc)" style="fill: none; stroke: #424242; stroke-width: 2.25; stroke-linecap: square"/>
   </g>
   <g id="line2d_23">
    <path clip-path="url(#pb00b2c06bc)" style="fill: none; stroke: #424242; stroke-width: 2.25; stroke-linecap: square"/>
   </g>
   <g id="line2d_24">
    <path clip-path="url(#pb00b2c06bc)" style="fill: none; stroke: #424242; stroke-width: 2.25; stroke-linecap: square"/>
   </g>
   <g id="line2d_25">
    <path clip-path="url(#pb00b2c06bc)" style="fill: none; stroke: #424242; stroke-width: 2.25; stroke-linecap: square"/>
   </g>
   <g id="line2d_26">
    <path clip-path="url(#pb00b2c06bc)" style="fill: none; stroke: #424242; stroke-width: 2.25; stroke-linecap: square"/>
   </g>
   <g id="line2d_27">
    <path clip-path="url(#pb00b2c06bc)" style="fill: none; stroke: #424242; stroke-width: 2.25; stroke-linecap: square"/>
   </g>
   <g id="line2d_28">
    <path clip-path="url(#pb00b2c06bc)" style="fill: none; stroke: #424242; stroke-width: 2.25; stroke-linecap: square"/>
   </g>
   <g id="line2d_29">
    <path clip-path="url(#pb00b2c06bc)" style="fill: none; stroke: #424242; stroke-width: 2.25; stroke-linecap: square"/>
   </g>
   <g id="line2d_30">
    <path clip-path="url(#pb00b2c06bc)" style="fill: none; stroke: #424242; stroke-width: 2.25; stroke-linecap: square"/>
   </g>
   <g id="patch_24">
    <path d="M 50.6 331.872753 
L 50.6 27.6 
" style="fill: none; stroke: #000000; stroke-width: 0.8; stroke-linejoin: miter; stroke-linecap: square"/>
   </g>
   <g id="patch_25">
    <path d="M 847.084628 331.872753 
L 847.084628 27.6 
" style="fill: none; stroke: #000000; stroke-width: 0.8; stroke-linejoin: miter; stroke-linecap: square"/>
   </g>
   <g id="patch_26">
    <path d="M 50.6 331.872753 
L 847.084628 331.872753 
" style="fill: none; stroke: #000000; stroke-width: 0.8; stroke-linejoin: miter; stroke-linecap: square"/>
   </g>
   <g id="patch_27">
    <path d="M 50.6 27.6 
L 847.084628 27.6 
" style="fill: none; stroke: #000000; stroke-width: 0.8; stroke-linejoin: miter; stroke-linecap: square"/>
   </g>
   <g id="text_15">
    <!-- Performance Metrics per Class - 2-Model System -->
    <g transform="translate(279.059502 21.6) scale(0.14 -0.14)">
     <defs>
      <path id="DejaVuSans-66" d="M 2375 4863 
L 2375 4384 
L 1825 4384 
Q 1516 4384 1395 4259 
Q 1275 4134 1275 3809 
L 1275 3500 
L 2222 3500 
L 2222 3053 
L 1275 3053 
L 1275 0 
L 697 0 
L 697 3053 
L 147 3053 
L 147 3500 
L 697 3500 
L 697 3744 
Q 697 4328 969 4595 
Q 1241 4863 1831 4863 
L 2375 4863 
z
" transform="scale(0.015625)"/>
      <path id="DejaVuSans-6f" d="M 1959 3097 
Q 1497 3097 1228 2736 
Q 959 2375 959 1747 
Q 959 1119 1226 758 
Q 1494 397 1959 397 
Q 2419 397 2687 759 
Q 2956 1122 2956 1747 
Q 2956 2369 2687 2733 
Q 2419 3097 1959 3097 
z
M 1959 3584 
Q 2709 3584 3137 3096 
Q 3566 2609 3566 1747 
Q 3566 888 3137 398 
Q 2709 -91 1959 -91 
Q 1206 -91 779 398 
Q 353 888 353 1747 
Q 353 2609 779 3096 
Q 1206 3584 1959 3584 
z
" transform="scale(0.015625)"/>
      <path id="DejaVuSans-6d" d="M 3328 2828 
Q 3544 3216 3844 3400 
Q 4144 3584 4550 3584 
Q 5097 3584 5394 3201 
Q 5691 2819 5691 2113 
L 5691 0 
L 5113 0 
L 5113 2094 
Q 5113 2597 4934 2840 
Q 4756 3084 4391 3084 
Q 3944 3084 3684 2787 
Q 3425 2491 3425 1978 
L 3425 0 
L 2847 0 
L 2847 2094 
Q 2847 2600 2669 2842 
Q 2491 3084 2119 3084 
Q 1678 3084 1418 2786 
Q 1159 2488 1159 1978 
L 1159 0 
L 581 0 
L 581 3500 
L 1159 3500 
L 1159 2956 
Q 1356 3278 1631 3431 
Q 1906 3584 2284 3584 
Q 2666 3584 2933 3390 
Q 3200 3197 3328 2828 
z
" transform="scale(0.015625)"/>
      <path id="DejaVuSans-6e" d="M 3513 2113 
L 3513 0 
L 2938 0 
L 2938 2094 
Q 2938 2591 2744 2837 
Q 2550 3084 2163 3084 
Q 1697 3084 1428 2787 
Q 1159 2491 1159 1978 
L 1159 0 
L 581 0 
L 581 3500 
L 1159 3500 
L 1159 2956 
Q 1366 3272 1645 3428 
Q 1925 3584 2291 3584 
Q 2894 3584 3203 3211 
Q 3513 2838 3513 2113 
z
" transform="scale(0.015625)"/>
      <path id="DejaVuSans-70" d="M 1159 525 
L 1159 -1331 
L 581 -1331 
L 581 3500 
L 1159 3500 
L 1159 2969 
Q 1341 3281 1617 3432 
Q 1894 3584 2278 3584 
Q 2916 3584 3314 3078 
Q 3713 2572 3713 1747 
Q 3713 922 3314 415 
Q 2916 -91 2278 -91 
Q 1894 -91 1617 61 
Q 1341 213 1159 525 
z
M 3116 1747 
Q 3116 2381 2855 2742 
Q 2594 3103 2138 3103 
Q 1681 3103 1420 2742 
Q 1159 2381 1159 1747 
Q 1159 1113 1420 752 
Q 1681 391 2138 391 
Q 2594 391 2855 752 
Q 3116 1113 3116 1747 
z
" transform="scale(0.015625)"/>
      <path id="DejaVuSans-2d" d="M 313 2009 
L 1997 2009 
L 1997 1497 
L 313 1497 
L 313 2009 
z
" transform="scale(0.015625)"/>
      <path id="DejaVuSans-79" d="M 2059 -325 
Q 1816 -950 1584 -1140 
Q 1353 -1331 966 -1331 
L 506 -1331 
L 506 -850 
L 844 -850 
Q 1081 -850 1212 -737 
Q 1344 -625 1503 -206 
L 1606 56 
L 191 3500 
L 800 3500 
L 1894 763 
L 2988 3500 
L 3597 3500 
L 2059 -325 
z
" transform="scale(0.015625)"/>
     </defs>
     <use xlink:href="#DejaVuSans-50"/>
     <use xlink:href="#DejaVuSans-65" transform="translate(56.677734 0)"/>
     <use xlink:href="#DejaVuSans-72" transform="translate(118.201172 0)"/>
     <use xlink:href="#DejaVuSans-66" transform="translate(159.314453 0)"/>
     <use xlink:href="#DejaVuSans-6f" transform="translate(194.519531 0)"/>
     <use xlink:href="#DejaVuSans-72" transform="translate(255.701172 0)"/>
     <use xlink:href="#DejaVuSans-6d" transform="translate(295.064453 0)"/>
     <use xlink:href="#DejaVuSans-61" transform="translate(392.476562 0)"/>
     <use xlink:href="#DejaVuSans-6e" transform="translate(453.755859 0)"/>
     <use xlink:href="#DejaVuSans-63" transform="translate(517.134766 0)"/>
     <use xlink:href="#DejaVuSans-65" transform="translate(572.115234 0)"/>
     <use xlink:href="#DejaVuSans-20" transform="translate(633.638672 0)"/>
     <use xlink:href="#DejaVuSans-4d" transform="translate(665.425781 0)"/>
     <use xlink:href="#DejaVuSans-65" transform="translate(751.705078 0)"/>
     <use xlink:href="#DejaVuSans-74" transform="translate(813.228516 0)"/>
     <use xlink:href="#DejaVuSans-72" transform="translate(852.4375 0)"/>
     <use xlink:href="#DejaVuSans-69" transform="translate(893.550781 0)"/>
     <use xlink:href="#DejaVuSans-63" transform="translate(921.333984 0)"/>
     <use xlink:href="#DejaVuSans-73" transform="translate(976.314453 0)"/>
     <use xlink:href="#DejaVuSans-20" transform="translate(1028.414062 0)"/>
     <use xlink:href="#DejaVuSans-70" transform="translate(1060.201172 0)"/>
     <use xlink:href="#DejaVuSans-65" transform="translate(1123.677734 0)"/>
     <use xlink:href="#DejaVuSans-72" transform="translate(1185.201172 0)"/>
     <use xlink:href="#DejaVuSans-20" transform="translate(1226.314453 0)"/>
     <use xlink:href="#DejaVuSans-43" transform="translate(1258.101562 0)"/>
     <use xlink:href="#DejaVuSans-6c" transform="translate(1327.925781 0)"/>
     <use xlink:href="#DejaVuSans-61" transform="translate(1355.708984 0)"/>
     <use xlink:href="#DejaVuSans-73" transform="translate(1416.988281 0)"/>
     <use xlink:href="#DejaVuSans-73" transform="translate(1469.087891 0)"/>
     <use xlink:href="#DejaVuSans-20" transform="translate(1521.1875 0)"/>
     <use xlink:href="#DejaVuSans-2d" transform="translate(1552.974609 0)"/>
     <use xlink:href="#DejaVuSans-20" transform="translate(1589.058594 0)"/>
     <use xlink:href="#DejaVuSans-32" transform="translate(1620.845703 0)"/>
     <use xlink:href="#DejaVuSans-2d" transform="translate(1684.46875 0)"/>
     <use xlink:href="#DejaVuSans-4d" transform="translate(1720.552734 0)"/>
     <use xlink:href="#DejaVuSans-6f" transform="translate(1806.832031 0)"/>
     <use xlink:href="#DejaVuSans-64" transform="translate(1868.013672 0)"/>
     <use xlink:href="#DejaVuSans-65" transform="translate(1931.490234 0)"/>
     <use xlink:href="#DejaVuSans-6c" transform="translate(1993.013672 0)"/>
     <use xlink:href="#DejaVuSans-20" transform="translate(2020.796875 0)"/>
     <use xlink:href="#DejaVuSans-53" transform="translate(2052.583984 0)"/>
     <use xlink:href="#DejaVuSans-79" transform="translate(2116.060547 0)"/>
     <use xlink:href="#DejaVuSans-73" transform="translate(2175.240234 0)"/>
     <use xlink:href="#DejaVuSans-74" transform="translate(2227.339844 0)"/>
     <use xlink:href="#DejaVuSans-65" transform="translate(2266.548828 0)"/>
     <use xlink:href="#DejaVuSans-6d" transform="translate(2328.072266 0)"/>
    </g>
   </g>
   <g id="legend_1">
    <g id="patch_28">
     <path d="M 763.470566 94.3125 
L 840.084628 94.3125 
Q 842.084628 94.3125 842.084628 92.3125 
L 842.084628 34.6 
Q 842.084628 32.6 840.084628 32.6 
L 763.470566 32.6 
Q 761.470566 32.6 761.470566 34.6 
L 761.470566 92.3125 
Q 761.470566 94.3125 763.470566 94.3125 
z
" style="fill: #ffffff; opacity: 0.8; stroke: #cccccc; stroke-linejoin: miter"/>
    </g>
    <g id="text_16">
     <!-- Metrics -->
     <g transform="translate(783.628378 44.198438) scale(0.1 -0.1)">
      <use xlink:href="#DejaVuSans-4d"/>
      <use xlink:href="#DejaVuSans-65" transform="translate(86.279297 0)"/>
      <use xlink:href="#DejaVuSans-74" transform="translate(147.802734 0)"/>
      <use xlink:href="#DejaVuSans-72" transform="translate(187.011719 0)"/>
      <use xlink:href="#DejaVuSans-69" transform="translate(228.125 0)"/>
      <use xlink:href="#DejaVuSans-63" transform="translate(255.908203 0)"/>
      <use xlink:href="#DejaVuSans-73" transform="translate(310.888672 0)"/>
     </g>
    </g>
    <g id="patch_29">
     <path d="M 765.470566 58.876563 
L 785.470566 58.876563 
L 785.470566 51.876563 
L 765.470566 51.876563 
z
" style="fill: #6e2f9e"/>
    </g>
    <g id="text_17">
     <!-- Precision -->
     <g transform="translate(793.470566 58.876563) scale(0.1 -0.1)">
      <use xlink:href="#DejaVuSans-50"/>
      <use xlink:href="#DejaVuSans-72" transform="translate(58.552734 0)"/>
      <use xlink:href="#DejaVuSans-65" transform="translate(97.416016 0)"/>
      <use xlink:href="#DejaVuSans-63" transform="translate(158.939453 0)"/>
      <use xlink:href="#DejaVuSans-69" transform="translate(213.919922 0)"/>
      <use xlink:href="#DejaVuSans-73" transform="translate(241.703125 0)"/>
      <use xlink:href="#DejaVuSans-69" transform="translate(293.802734 0)"/>
      <use xlink:href="#DejaVuSans-6f" transform="translate(321.585938 0)"/>
      <use xlink:href="#DejaVuSans-6e" transform="translate(382.767578 0)"/>
     </g>
    </g>
    <g id="patch_30">
     <path d="M 765.470566 73.554688 
L 785.470566 73.554688 
L 785.470566 66.554688 
L 765.470566 66.554688 
z
" style="fill: #d95656"/>
    </g>
    <g id="text_18">
     <!-- Recall -->
     <g transform="translate(793.470566 73.554688) scale(0.1 -0.1)">
      <defs>
       <path id="DejaVuSans-52" d="M 2841 2188 
Q 3044 2119 3236 1894 
Q 3428 1669 3622 1275 
L 4263 0 
L 3584 0 
L 2988 1197 
Q 2756 1666 2539 1819 
Q 2322 1972 1947 1972 
L 1259 1972 
L 1259 0 
L 628 0 
L 628 4666 
L 2053 4666 
Q 2853 4666 3247 4331 
Q 3641 3997 3641 3322 
Q 3641 2881 3436 2590 
Q 3231 2300 2841 2188 
z
M 1259 4147 
L 1259 2491 
L 2053 2491 
Q 2509 2491 2742 2702 
Q 2975 2913 2975 3322 
Q 2975 3731 2742 3939 
Q 2509 4147 2053 4147 
L 1259 4147 
z
" transform="scale(0.015625)"/>
      </defs>
      <use xlink:href="#DejaVuSans-52"/>
      <use xlink:href="#DejaVuSans-65" transform="translate(64.982422 0)"/>
      <use xlink:href="#DejaVuSans-63" transform="translate(126.505859 0)"/>
      <use xlink:href="#DejaVuSans-61" transform="translate(181.486328 0)"/>
      <use xlink:href="#DejaVuSans-6c" transform="translate(242.765625 0)"/>
      <use xlink:href="#DejaVuSans-6c" transform="translate(270.548828 0)"/>
     </g>
    </g>
    <g id="patch_31">
     <path d="M 765.470566 88.232813 
L 785.470566 88.232813 
L 785.470566 81.232813 
L 765.470566 81.232813 
z
" style="fill: #e5a34c"/>
    </g>
    <g id="text_19">
     <!-- F1-Score -->
     <g transform="translate(793.470566 88.232813) scale(0.1 -0.1)">
      <use xlink:href="#DejaVuSans-46"/>
      <use xlink:href="#DejaVuSans-31" transform="translate(57.519531 0)"/>
      <use xlink:href="#DejaVuSans-2d" transform="translate(121.142578 0)"/>
      <use xlink:href="#DejaVuSans-53" transform="translate(157.226562 0)"/>
      <use xlink:href="#DejaVuSans-63" transform="translate(220.703125 0)"/>
      <use xlink:href="#DejaVuSans-6f" transform="translate(275.683594 0)"/>
      <use xlink:href="#DejaVuSans-72" transform="translate(336.865234 0)"/>
      <use xlink:href="#DejaVuSans-65" transform="translate(375.728516 0)"/>
     </g>
    </g>
   </g>
  </g>
  <g id="axes_2">
   <g id="patch_32">
    <path d="M 50.6 712.206757 
L 847.084628 712.206757 
L 847.084628 407.934003 
L 50.6 407.934003 
z
" style="fill: #ffffff"/>
   </g>
   <g id="patch_33">
    <path d="M 57.237372 712.206757 
L 74.93703 712.206757 
L 74.93703 451.730045 
L 57.237372 451.730045 
z
" clip-path="url(#p7ab96a4bc8)" style="fill: #6e2f9e"/>
   </g>
   <g id="patch_34">
    <path d="M 123.611091 712.206757 
L 141.310749 712.206757 
L 141.310749 425.880024 
L 123.611091 425.880024 
z
" clip-path="url(#p7ab96a4bc8)" style="fill: #6e2f9e"/>
   </g>
   <g id="patch_35">
    <path d="M 189.98481 712.206757 
L 207.684468 712.206757 
L 207.684468 422.423182 
L 189.98481 422.423182 
z
" clip-path="url(#p7ab96a4bc8)" style="fill: #6e2f9e"/>
   </g>
   <g id="patch_36">
    <path d="M 256.358529 712.206757 
L 274.058187 712.206757 
L 274.058187 438.285701 
L 256.358529 438.285701 
z
" clip-path="url(#p7ab96a4bc8)" style="fill: #6e2f9e"/>
   </g>
   <g id="patch_37">
    <path d="M 322.732248 712.206757 
L 340.431906 712.206757 
L 340.431906 436.369943 
L 322.732248 436.369943 
z
" clip-path="url(#p7ab96a4bc8)" style="fill: #6e2f9e"/>
   </g>
   <g id="patch_38">
    <path d="M 389.105967 712.206757 
L 406.805625 712.206757 
L 406.805625 437.290817 
L 389.105967 437.290817 
z
" clip-path="url(#p7ab96a4bc8)" style="fill: #6e2f9e"/>
   </g>
   <g id="patch_39">
    <path d="M 455.479686 712.206757 
L 473.179344 712.206757 
L 473.179344 429.609056 
L 455.479686 429.609056 
z
" clip-path="url(#p7ab96a4bc8)" style="fill: #6e2f9e"/>
   </g>
   <g id="patch_40">
    <path d="M 521.853405 712.206757 
L 539.553063 712.206757 
L 539.553063 430.807862 
L 521.853405 430.807862 
z
" clip-path="url(#p7ab96a4bc8)" style="fill: #6e2f9e"/>
   </g>
   <g id="patch_41">
    <path d="M 588.227124 712.206757 
L 605.926783 712.206757 
L 605.926783 434.752872 
L 588.227124 434.752872 
z
" clip-path="url(#p7ab96a4bc8)" style="fill: #6e2f9e"/>
   </g>
   <g id="patch_42">
    <path d="M 654.600843 712.206757 
L 672.300502 712.206757 
L 672.300502 437.87007 
L 654.600843 437.87007 
z
" clip-path="url(#p7ab96a4bc8)" style="fill: #6e2f9e"/>
   </g>
   <g id="patch_43">
    <path d="M 720.974562 712.206757 
L 738.674221 712.206757 
L 738.674221 455.650098 
L 720.974562 455.650098 
z
" clip-path="url(#p7ab96a4bc8)" style="fill: #6e2f9e"/>
   </g>
   <g id="patch_44">
    <path d="M 787.348281 712.206757 
L 805.04794 712.206757 
L 805.04794 450.22218 
L 787.348281 450.22218 
z
" clip-path="url(#p7ab96a4bc8)" style="fill: #6e2f9e"/>
   </g>
   <g id="patch_45">
    <path d="M 74.93703 712.206757 
L 92.636689 712.206757 
L 92.636689 453.759271 
L 74.93703 453.759271 
z
" clip-path="url(#p7ab96a4bc8)" style="fill: #d95656"/>
   </g>
   <g id="patch_46">
    <path d="M 141.310749 712.206757 
L 159.010408 712.206757 
L 159.010408 425.845246 
L 141.310749 425.845246 
z
" clip-path="url(#p7ab96a4bc8)" style="fill: #d95656"/>
   </g>
   <g id="patch_47">
    <path d="M 207.684468 712.206757 
L 225.384127 712.206757 
L 225.384127 422.591548 
L 207.684468 422.591548 
z
" clip-path="url(#p7ab96a4bc8)" style="fill: #d95656"/>
   </g>
   <g id="patch_48">
    <path d="M 274.058187 712.206757 
L 291.757846 712.206757 
L 291.757846 446.993733 
L 274.058187 446.993733 
z
" clip-path="url(#p7ab96a4bc8)" style="fill: #d95656"/>
   </g>
   <g id="patch_49">
    <path d="M 340.431906 712.206757 
L 358.131565 712.206757 
L 358.131565 437.288384 
L 340.431906 437.288384 
z
" clip-path="url(#p7ab96a4bc8)" style="fill: #d95656"/>
   </g>
   <g id="patch_50">
    <path d="M 406.805625 712.206757 
L 424.505284 712.206757 
L 424.505284 442.611771 
L 406.805625 442.611771 
z
" clip-path="url(#p7ab96a4bc8)" style="fill: #d95656"/>
   </g>
   <g id="patch_51">
    <path d="M 473.179344 712.206757 
L 490.879003 712.206757 
L 490.879003 429.782682 
L 473.179344 429.782682 
z
" clip-path="url(#p7ab96a4bc8)" style="fill: #d95656"/>
   </g>
   <g id="patch_52">
    <path d="M 539.553063 712.206757 
L 557.252722 712.206757 
L 557.252722 430.835923 
L 539.553063 430.835923 
z
" clip-path="url(#p7ab96a4bc8)" style="fill: #d95656"/>
   </g>
   <g id="patch_53">
    <path d="M 605.926783 712.206757 
L 623.626441 712.206757 
L 623.626441 436.031617 
L 605.926783 436.031617 
z
" clip-path="url(#p7ab96a4bc8)" style="fill: #d95656"/>
   </g>
   <g id="patch_54">
    <path d="M 672.300502 712.206757 
L 690.00016 712.206757 
L 690.00016 437.780221 
L 672.300502 437.780221 
z
" clip-path="url(#p7ab96a4bc8)" style="fill: #d95656"/>
   </g>
   <g id="patch_55">
    <path d="M 738.674221 712.206757 
L 756.373879 712.206757 
L 756.373879 455.614412 
L 738.674221 455.614412 
z
" clip-path="url(#p7ab96a4bc8)" style="fill: #d95656"/>
   </g>
   <g id="patch_56">
    <path d="M 805.04794 712.206757 
L 822.747598 712.206757 
L 822.747598 454.707491 
L 805.04794 454.707491 
z
" clip-path="url(#p7ab96a4bc8)" style="fill: #d95656"/>
   </g>
   <g id="patch_57">
    <path d="M 92.636689 712.206757 
L 110.336347 712.206757 
L 110.336347 453.723571 
L 92.636689 453.723571 
z
" clip-path="url(#p7ab96a4bc8)" style="fill: #e5a34c"/>
   </g>
   <g id="patch_58">
    <path d="M 159.010408 712.206757 
L 176.710066 712.206757 
L 176.710066 425.905864 
L 159.010408 425.905864 
z
" clip-path="url(#p7ab96a4bc8)" style="fill: #e5a34c"/>
   </g>
   <g id="patch_59">
    <path d="M 225.384127 712.206757 
L 243.083785 712.206757 
L 243.083785 422.553725 
L 225.384127 422.553725 
z
" clip-path="url(#p7ab96a4bc8)" style="fill: #e5a34c"/>
   </g>
   <g id="patch_60">
    <path d="M 291.757846 712.206757 
L 309.457504 712.206757 
L 309.457504 445.466759 
L 291.757846 445.466759 
z
" clip-path="url(#p7ab96a4bc8)" style="fill: #e5a34c"/>
   </g>
   <g id="patch_61">
    <path d="M 358.131565 712.206757 
L 375.831223 712.206757 
L 375.831223 436.962435 
L 358.131565 436.962435 
z
" clip-path="url(#p7ab96a4bc8)" style="fill: #e5a34c"/>
   </g>
   <g id="patch_62">
    <path d="M 424.505284 712.206757 
L 442.204942 712.206757 
L 442.204942 441.271679 
L 424.505284 441.271679 
z
" clip-path="url(#p7ab96a4bc8)" style="fill: #e5a34c"/>
   </g>
   <g id="patch_63">
    <path d="M 490.879003 712.206757 
L 508.578661 712.206757 
L 508.578661 429.717847 
L 490.879003 429.717847 
z
" clip-path="url(#p7ab96a4bc8)" style="fill: #e5a34c"/>
   </g>
   <g id="patch_64">
    <path d="M 557.252722 712.206757 
L 574.95238 712.206757 
L 574.95238 430.830588 
L 557.252722 430.830588 
z
" clip-path="url(#p7ab96a4bc8)" style="fill: #e5a34c"/>
   </g>
   <g id="patch_65">
    <path d="M 623.626441 712.206757 
L 641.326099 712.206757 
L 641.326099 436.064547 
L 623.626441 436.064547 
z
" clip-path="url(#p7ab96a4bc8)" style="fill: #e5a34c"/>
   </g>
   <g id="patch_66">
    <path d="M 690.00016 712.206757 
L 707.699818 712.206757 
L 707.699818 437.967757 
L 690.00016 437.967757 
z
" clip-path="url(#p7ab96a4bc8)" style="fill: #e5a34c"/>
   </g>
   <g id="patch_67">
    <path d="M 756.373879 712.206757 
L 774.073537 712.206757 
L 774.073537 455.914692 
L 756.373879 455.914692 
z
" clip-path="url(#p7ab96a4bc8)" style="fill: #e5a34c"/>
   </g>
   <g id="patch_68">
    <path d="M 822.747598 712.206757 
L 840.447256 712.206757 
L 840.447256 454.016968 
L 822.747598 454.016968 
z
" clip-path="url(#p7ab96a4bc8)" style="fill: #e5a34c"/>
   </g>
   <g id="patch_69">
    <path d="M 83.78686 712.206757 
L 83.78686 712.206757 
L 83.78686 712.206757 
L 83.78686 712.206757 
z
" clip-path="url(#p7ab96a4bc8)" style="fill: #6e2f9e"/>
   </g>
   <g id="patch_70">
    <path d="M 83.78686 712.206757 
L 83.78686 712.206757 
L 83.78686 712.206757 
L 83.78686 712.206757 
z
" clip-path="url(#p7ab96a4bc8)" style="fill: #d95656"/>
   </g>
   <g id="patch_71">
    <path d="M 83.78686 712.206757 
L 83.78686 712.206757 
L 83.78686 712.206757 
L 83.78686 712.206757 
z
" clip-path="url(#p7ab96a4bc8)" style="fill: #e5a34c"/>
   </g>
   <g id="matplotlib.axis_3">
    <g id="xtick_7">
     <g id="line2d_31">
      <g>
       <use xlink:href="#ma4300782d9" x="83.78686" y="712.206757" style="stroke: #000000; stroke-width: 0.8"/>
      </g>
     </g>
     <g id="text_20">
      <!-- AMCREST WiFi Camera -->
      <g transform="translate(45.425764 805.204199) rotate(-45) scale(0.1 -0.1)">
       <defs>
        <path id="DejaVuSans-41" d="M 2188 4044 
L 1331 1722 
L 3047 1722 
L 2188 4044 
z
M 1831 4666 
L 2547 4666 
L 4325 0 
L 3669 0 
L 3244 1197 
L 1141 1197 
L 716 0 
L 50 0 
L 1831 4666 
z
" transform="scale(0.015625)"/>
        <path id="DejaVuSans-45" d="M 628 4666 
L 3578 4666 
L 3578 4134 
L 1259 4134 
L 1259 2753 
L 3481 2753 
L 3481 2222 
L 1259 2222 
L 1259 531 
L 3634 531 
L 3634 0 
L 628 0 
L 628 4666 
z
" transform="scale(0.015625)"/>
        <path id="DejaVuSans-54" d="M -19 4666 
L 3928 4666 
L 3928 4134 
L 2272 4134 
L 2272 0 
L 1638 0 
L 1638 4134 
L -19 4134 
L -19 4666 
z
" transform="scale(0.015625)"/>
        <path id="DejaVuSans-57" d="M 213 4666 
L 850 4666 
L 1831 722 
L 2809 4666 
L 3519 4666 
L 4500 722 
L 5478 4666 
L 6119 4666 
L 4947 0 
L 4153 0 
L 3169 4050 
L 2175 0 
L 1381 0 
L 213 4666 
z
" transform="scale(0.015625)"/>
       </defs>
       <use xlink:href="#DejaVuSans-41"/>
       <use xlink:href="#DejaVuSans-4d" transform="translate(68.408203 0)"/>
       <use xlink:href="#DejaVuSans-43" transform="translate(154.6875 0)"/>
       <use xlink:href="#DejaVuSans-52" transform="translate(224.511719 0)"/>
       <use xlink:href="#DejaVuSans-45" transform="translate(293.994141 0)"/>
       <use xlink:href="#DejaVuSans-53" transform="translate(357.177734 0)"/>
       <use xlink:href="#DejaVuSans-54" transform="translate(420.654297 0)"/>
       <use xlink:href="#DejaVuSans-20" transform="translate(481.738281 0)"/>
       <use xlink:href="#DejaVuSans-57" transform="translate(513.525391 0)"/>
       <use xlink:href="#DejaVuSans-69" transform="translate(610.152344 0)"/>
       <use xlink:href="#DejaVuSans-46" transform="translate(637.935547 0)"/>
       <use xlink:href="#DejaVuSans-69" transform="translate(688.205078 0)"/>
       <use xlink:href="#DejaVuSans-20" transform="translate(715.988281 0)"/>
       <use xlink:href="#DejaVuSans-43" transform="translate(747.775391 0)"/>
       <use xlink:href="#DejaVuSans-61" transform="translate(817.599609 0)"/>
       <use xlink:href="#DejaVuSans-6d" transform="translate(878.878906 0)"/>
       <use xlink:href="#DejaVuSans-65" transform="translate(976.291016 0)"/>
       <use xlink:href="#DejaVuSans-72" transform="translate(1037.814453 0)"/>
       <use xlink:href="#DejaVuSans-61" transform="translate(1078.927734 0)"/>
      </g>
     </g>
    </g>
    <g id="xtick_8">
     <g id="line2d_32">
      <g>
       <use xlink:href="#ma4300782d9" x="150.160579" y="712.206757" style="stroke: #000000; stroke-width: 0.8"/>
      </g>
     </g>
     <g id="text_21">
      <!-- Amazon Echo Show -->
      <g transform="translate(117.454128 793.89491) rotate(-45) scale(0.1 -0.1)">
       <defs>
        <path id="DejaVuSans-7a" d="M 353 3500 
L 3084 3500 
L 3084 2975 
L 922 459 
L 3084 459 
L 3084 0 
L 275 0 
L 275 525 
L 2438 3041 
L 353 3041 
L 353 3500 
z
" transform="scale(0.015625)"/>
        <path id="DejaVuSans-68" d="M 3513 2113 
L 3513 0 
L 2938 0 
L 2938 2094 
Q 2938 2591 2744 2837 
Q 2550 3084 2163 3084 
Q 1697 3084 1428 2787 
Q 1159 2491 1159 1978 
L 1159 0 
L 581 0 
L 581 4863 
L 1159 4863 
L 1159 2956 
Q 1366 3272 1645 3428 
Q 1925 3584 2291 3584 
Q 2894 3584 3203 3211 
Q 3513 2838 3513 2113 
z
" transform="scale(0.015625)"/>
        <path id="DejaVuSans-77" d="M 269 3500 
L 844 3500 
L 1563 769 
L 2278 3500 
L 2956 3500 
L 3675 769 
L 4391 3500 
L 4966 3500 
L 4050 0 
L 3372 0 
L 2619 2869 
L 1863 0 
L 1184 0 
L 269 3500 
z
" transform="scale(0.015625)"/>
       </defs>
       <use xlink:href="#DejaVuSans-41"/>
       <use xlink:href="#DejaVuSans-6d" transform="translate(68.408203 0)"/>
       <use xlink:href="#DejaVuSans-61" transform="translate(165.820312 0)"/>
       <use xlink:href="#DejaVuSans-7a" transform="translate(227.099609 0)"/>
       <use xlink:href="#DejaVuSans-6f" transform="translate(279.589844 0)"/>
       <use xlink:href="#DejaVuSans-6e" transform="translate(340.771484 0)"/>
       <use xlink:href="#DejaVuSans-20" transform="translate(404.150391 0)"/>
       <use xlink:href="#DejaVuSans-45" transform="translate(435.9375 0)"/>
       <use xlink:href="#DejaVuSans-63" transform="translate(499.121094 0)"/>
       <use xlink:href="#DejaVuSans-68" transform="translate(554.101562 0)"/>
       <use xlink:href="#DejaVuSans-6f" transform="translate(617.480469 0)"/>
       <use xlink:href="#DejaVuSans-20" transform="translate(678.662109 0)"/>
       <use xlink:href="#DejaVuSans-53" transform="translate(710.449219 0)"/>
       <use xlink:href="#DejaVuSans-68" transform="translate(773.925781 0)"/>
       <use xlink:href="#DejaVuSans-6f" transform="translate(837.304688 0)"/>
       <use xlink:href="#DejaVuSans-77" transform="translate(898.486328 0)"/>
      </g>
     </g>
    </g>
    <g id="xtick_9">
     <g id="line2d_33">
      <g>
       <use xlink:href="#ma4300782d9" x="216.534298" y="712.206757" style="stroke: #000000; stroke-width: 0.8"/>
      </g>
     </g>
     <g id="text_22">
      <!-- Arlo Q Indoor Camera -->
      <g transform="translate(180.131004 801.288596) rotate(-45) scale(0.1 -0.1)">
       <defs>
        <path id="DejaVuSans-51" d="M 2522 4238 
Q 1834 4238 1429 3725 
Q 1025 3213 1025 2328 
Q 1025 1447 1429 934 
Q 1834 422 2522 422 
Q 3209 422 3611 934 
Q 4013 1447 4013 2328 
Q 4013 3213 3611 3725 
Q 3209 4238 2522 4238 
z
M 3406 84 
L 4238 -825 
L 3475 -825 
L 2784 -78 
Q 2681 -84 2626 -87 
Q 2572 -91 2522 -91 
Q 1538 -91 948 567 
Q 359 1225 359 2328 
Q 359 3434 948 4092 
Q 1538 4750 2522 4750 
Q 3503 4750 4090 4092 
Q 4678 3434 4678 2328 
Q 4678 1516 4351 937 
Q 4025 359 3406 84 
z
" transform="scale(0.015625)"/>
       </defs>
       <use xlink:href="#DejaVuSans-41"/>
       <use xlink:href="#DejaVuSans-72" transform="translate(68.408203 0)"/>
       <use xlink:href="#DejaVuSans-6c" transform="translate(109.521484 0)"/>
       <use xlink:href="#DejaVuSans-6f" transform="translate(137.304688 0)"/>
       <use xlink:href="#DejaVuSans-20" transform="translate(198.486328 0)"/>
       <use xlink:href="#DejaVuSans-51" transform="translate(230.273438 0)"/>
       <use xlink:href="#DejaVuSans-20" transform="translate(308.984375 0)"/>
       <use xlink:href="#DejaVuSans-49" transform="translate(340.771484 0)"/>
       <use xlink:href="#DejaVuSans-6e" transform="translate(370.263672 0)"/>
       <use xlink:href="#DejaVuSans-64" transform="translate(433.642578 0)"/>
       <use xlink:href="#DejaVuSans-6f" transform="translate(497.119141 0)"/>
       <use xlink:href="#DejaVuSans-6f" transform="translate(558.300781 0)"/>
       <use xlink:href="#DejaVuSans-72" transform="translate(619.482422 0)"/>
       <use xlink:href="#DejaVuSans-20" transform="translate(660.595703 0)"/>
       <use xlink:href="#DejaVuSans-43" transform="translate(692.382812 0)"/>
       <use xlink:href="#DejaVuSans-61" transform="translate(762.207031 0)"/>
       <use xlink:href="#DejaVuSans-6d" transform="translate(823.486328 0)"/>
       <use xlink:href="#DejaVuSans-65" transform="translate(920.898438 0)"/>
       <use xlink:href="#DejaVuSans-72" transform="translate(982.421875 0)"/>
       <use xlink:href="#DejaVuSans-61" transform="translate(1023.535156 0)"/>
      </g>
     </g>
    </g>
    <g id="xtick_10">
     <g id="line2d_34">
      <g>
       <use xlink:href="#ma4300782d9" x="282.908017" y="712.206757" style="stroke: #000000; stroke-width: 0.8"/>
      </g>
     </g>
     <g id="text_23">
      <!-- D-Link Mini Camera -->
      <g transform="translate(250.24355 793.810941) rotate(-45) scale(0.1 -0.1)">
       <defs>
        <path id="DejaVuSans-44" d="M 1259 4147 
L 1259 519 
L 2022 519 
Q 2988 519 3436 956 
Q 3884 1394 3884 2338 
Q 3884 3275 3436 3711 
Q 2988 4147 2022 4147 
L 1259 4147 
z
M 628 4666 
L 1925 4666 
Q 3281 4666 3915 4102 
Q 4550 3538 4550 2338 
Q 4550 1131 3912 565 
Q 3275 0 1925 0 
L 628 0 
L 628 4666 
z
" transform="scale(0.015625)"/>
        <path id="DejaVuSans-4c" d="M 628 4666 
L 1259 4666 
L 1259 531 
L 3531 531 
L 3531 0 
L 628 0 
L 628 4666 
z
" transform="scale(0.015625)"/>
        <path id="DejaVuSans-6b" d="M 581 4863 
L 1159 4863 
L 1159 1991 
L 2875 3500 
L 3609 3500 
L 1753 1863 
L 3688 0 
L 2938 0 
L 1159 1709 
L 1159 0 
L 581 0 
L 581 4863 
z
" transform="scale(0.015625)"/>
       </defs>
       <use xlink:href="#DejaVuSans-44"/>
       <use xlink:href="#DejaVuSans-2d" transform="translate(77.001953 0)"/>
       <use xlink:href="#DejaVuSans-4c" transform="translate(113.085938 0)"/>
       <use xlink:href="#DejaVuSans-69" transform="translate(168.798828 0)"/>
       <use xlink:href="#DejaVuSans-6e" transform="translate(196.582031 0)"/>
       <use xlink:href="#DejaVuSans-6b" transform="translate(259.960938 0)"/>
       <use xlink:href="#DejaVuSans-20" transform="translate(317.871094 0)"/>
       <use xlink:href="#DejaVuSans-4d" transform="translate(349.658203 0)"/>
       <use xlink:href="#DejaVuSans-69" transform="translate(435.9375 0)"/>
       <use xlink:href="#DejaVuSans-6e" transform="translate(463.720703 0)"/>
       <use xlink:href="#DejaVuSans-69" transform="translate(527.099609 0)"/>
       <use xlink:href="#DejaVuSans-20" transform="translate(554.882812 0)"/>
       <use xlink:href="#DejaVuSans-43" transform="translate(586.669922 0)"/>
       <use xlink:href="#DejaVuSans-61" transform="translate(656.494141 0)"/>
       <use xlink:href="#DejaVuSans-6d" transform="translate(717.773438 0)"/>
       <use xlink:href="#DejaVuSans-65" transform="translate(815.185547 0)"/>
       <use xlink:href="#DejaVuSans-72" transform="translate(876.708984 0)"/>
       <use xlink:href="#DejaVuSans-61" transform="translate(917.822266 0)"/>
      </g>
     </g>
    </g>
    <g id="xtick_11">
     <g id="line2d_35">
      <g>
       <use xlink:href="#ma4300782d9" x="349.281736" y="712.206757" style="stroke: #000000; stroke-width: 0.8"/>
      </g>
     </g>
     <g id="text_24">
      <!-- HeimVision Smart WiFi Camera -->
      <g transform="translate(296.325514 834.394451) rotate(-45) scale(0.1 -0.1)">
       <defs>
        <path id="DejaVuSans-48" d="M 628 4666 
L 1259 4666 
L 1259 2753 
L 3553 2753 
L 3553 4666 
L 4184 4666 
L 4184 0 
L 3553 0 
L 3553 2222 
L 1259 2222 
L 1259 0 
L 628 0 
L 628 4666 
z
" transform="scale(0.015625)"/>
       </defs>
       <use xlink:href="#DejaVuSans-48"/>
       <use xlink:href="#DejaVuSans-65" transform="translate(75.195312 0)"/>
       <use xlink:href="#DejaVuSans-69" transform="translate(136.71875 0)"/>
       <use xlink:href="#DejaVuSans-6d" transform="translate(164.501953 0)"/>
       <use xlink:href="#DejaVuSans-56" transform="translate(261.914062 0)"/>
       <use xlink:href="#DejaVuSans-69" transform="translate(328.072266 0)"/>
       <use xlink:href="#DejaVuSans-73" transform="translate(355.855469 0)"/>
       <use xlink:href="#DejaVuSans-69" transform="translate(407.955078 0)"/>
       <use xlink:href="#DejaVuSans-6f" transform="translate(435.738281 0)"/>
       <use xlink:href="#DejaVuSans-6e" transform="translate(496.919922 0)"/>
       <use xlink:href="#DejaVuSans-20" transform="translate(560.298828 0)"/>
       <use xlink:href="#DejaVuSans-53" transform="translate(592.085938 0)"/>
       <use xlink:href="#DejaVuSans-6d" transform="translate(655.5625 0)"/>
       <use xlink:href="#DejaVuSans-61" transform="translate(752.974609 0)"/>
       <use xlink:href="#DejaVuSans-72" transform="translate(814.253906 0)"/>
       <use xlink:href="#DejaVuSans-74" transform="translate(855.367188 0)"/>
       <use xlink:href="#DejaVuSans-20" transform="translate(894.576172 0)"/>
       <use xlink:href="#DejaVuSans-57" transform="translate(926.363281 0)"/>
       <use xlink:href="#DejaVuSans-69" transform="translate(1022.990234 0)"/>
       <use xlink:href="#DejaVuSans-46" transform="translate(1050.773438 0)"/>
       <use xlink:href="#DejaVuSans-69" transform="translate(1101.042969 0)"/>
       <use xlink:href="#DejaVuSans-20" transform="translate(1128.826172 0)"/>
       <use xlink:href="#DejaVuSans-43" transform="translate(1160.613281 0)"/>
       <use xlink:href="#DejaVuSans-61" transform="translate(1230.4375 0)"/>
       <use xlink:href="#DejaVuSans-6d" transform="translate(1291.716797 0)"/>
       <use xlink:href="#DejaVuSans-65" transform="translate(1389.128906 0)"/>
       <use xlink:href="#DejaVuSans-72" transform="translate(1450.652344 0)"/>
       <use xlink:href="#DejaVuSans-61" transform="translate(1491.765625 0)"/>
      </g>
     </g>
    </g>
    <g id="xtick_12">
     <g id="line2d_36">
      <g>
       <use xlink:href="#ma4300782d9" x="415.655455" y="712.206757" style="stroke: #000000; stroke-width: 0.8"/>
      </g>
     </g>
     <g id="text_25">
      <!-- Home Eye Camera -->
      <g transform="translate(384.541099 790.71072) rotate(-45) scale(0.1 -0.1)">
       <use xlink:href="#DejaVuSans-48"/>
       <use xlink:href="#DejaVuSans-6f" transform="translate(75.195312 0)"/>
       <use xlink:href="#DejaVuSans-6d" transform="translate(136.376953 0)"/>
       <use xlink:href="#DejaVuSans-65" transform="translate(233.789062 0)"/>
       <use xlink:href="#DejaVuSans-20" transform="translate(295.3125 0)"/>
       <use xlink:href="#DejaVuSans-45" transform="translate(327.099609 0)"/>
       <use xlink:href="#DejaVuSans-79" transform="translate(390.283203 0)"/>
       <use xlink:href="#DejaVuSans-65" transform="translate(449.462891 0)"/>
       <use xlink:href="#DejaVuSans-20" transform="translate(510.986328 0)"/>
       <use xlink:href="#DejaVuSans-43" transform="translate(542.773438 0)"/>
       <use xlink:href="#DejaVuSans-61" transform="translate(612.597656 0)"/>
       <use xlink:href="#DejaVuSans-6d" transform="translate(673.876953 0)"/>
       <use xlink:href="#DejaVuSans-65" transform="translate(771.289062 0)"/>
       <use xlink:href="#DejaVuSans-72" transform="translate(832.8125 0)"/>
       <use xlink:href="#DejaVuSans-61" transform="translate(873.925781 0)"/>
      </g>
     </g>
    </g>
    <g id="xtick_13">
     <g id="line2d_37">
      <g>
       <use xlink:href="#ma4300782d9" x="482.029174" y="712.206757" style="stroke: #000000; stroke-width: 0.8"/>
      </g>
     </g>
     <g id="text_26">
      <!-- Nest Indoor Camera -->
      <g transform="translate(448.501816 795.536724) rotate(-45) scale(0.1 -0.1)">
       <use xlink:href="#DejaVuSans-4e"/>
       <use xlink:href="#DejaVuSans-65" transform="translate(74.804688 0)"/>
       <use xlink:href="#DejaVuSans-73" transform="translate(136.328125 0)"/>
       <use xlink:href="#DejaVuSans-74" transform="translate(188.427734 0)"/>
       <use xlink:href="#DejaVuSans-20" transform="translate(227.636719 0)"/>
       <use xlink:href="#DejaVuSans-49" transform="translate(259.423828 0)"/>
       <use xlink:href="#DejaVuSans-6e" transform="translate(288.916016 0)"/>
       <use xlink:href="#DejaVuSans-64" transform="translate(352.294922 0)"/>
       <use xlink:href="#DejaVuSans-6f" transform="translate(415.771484 0)"/>
       <use xlink:href="#DejaVuSans-6f" transform="translate(476.953125 0)"/>
       <use xlink:href="#DejaVuSans-72" transform="translate(538.134766 0)"/>
       <use xlink:href="#DejaVuSans-20" transform="translate(579.248047 0)"/>
       <use xlink:href="#DejaVuSans-43" transform="translate(611.035156 0)"/>
       <use xlink:href="#DejaVuSans-61" transform="translate(680.859375 0)"/>
       <use xlink:href="#DejaVuSans-6d" transform="translate(742.138672 0)"/>
       <use xlink:href="#DejaVuSans-65" transform="translate(839.550781 0)"/>
       <use xlink:href="#DejaVuSans-72" transform="translate(901.074219 0)"/>
       <use xlink:href="#DejaVuSans-61" transform="translate(942.1875 0)"/>
      </g>
     </g>
    </g>
    <g id="xtick_14">
     <g id="line2d_38">
      <g>
       <use xlink:href="#ma4300782d9" x="548.402893" y="712.206757" style="stroke: #000000; stroke-width: 0.8"/>
      </g>
     </g>
     <g id="text_27">
      <!-- Netatmo Camera -->
      <g transform="translate(519.989353 785.309087) rotate(-45) scale(0.1 -0.1)">
       <use xlink:href="#DejaVuSans-4e"/>
       <use xlink:href="#DejaVuSans-65" transform="translate(74.804688 0)"/>
       <use xlink:href="#DejaVuSans-74" transform="translate(136.328125 0)"/>
       <use xlink:href="#DejaVuSans-61" transform="translate(175.537109 0)"/>
       <use xlink:href="#DejaVuSans-74" transform="translate(236.816406 0)"/>
       <use xlink:href="#DejaVuSans-6d" transform="translate(276.025391 0)"/>
       <use xlink:href="#DejaVuSans-6f" transform="translate(373.4375 0)"/>
       <use xlink:href="#DejaVuSans-20" transform="translate(434.619141 0)"/>
       <use xlink:href="#DejaVuSans-43" transform="translate(466.40625 0)"/>
       <use xlink:href="#DejaVuSans-61" transform="translate(536.230469 0)"/>
       <use xlink:href="#DejaVuSans-6d" transform="translate(597.509766 0)"/>
       <use xlink:href="#DejaVuSans-65" transform="translate(694.921875 0)"/>
       <use xlink:href="#DejaVuSans-72" transform="translate(756.445312 0)"/>
       <use xlink:href="#DejaVuSans-61" transform="translate(797.558594 0)"/>
      </g>
     </g>
    </g>
    <g id="xtick_15">
     <g id="line2d_39">
      <g>
       <use xlink:href="#ma4300782d9" x="614.776612" y="712.206757" style="stroke: #000000; stroke-width: 0.8"/>
      </g>
     </g>
     <g id="text_28">
      <!-- Rbcior Camera -->
      <g transform="translate(590.485284 777.064664) rotate(-45) scale(0.1 -0.1)">
       <defs>
        <path id="DejaVuSans-62" d="M 3116 1747 
Q 3116 2381 2855 2742 
Q 2594 3103 2138 3103 
Q 1681 3103 1420 2742 
Q 1159 2381 1159 1747 
Q 1159 1113 1420 752 
Q 1681 391 2138 391 
Q 2594 391 2855 752 
Q 3116 1113 3116 1747 
z
M 1159 2969 
Q 1341 3281 1617 3432 
Q 1894 3584 2278 3584 
Q 2916 3584 3314 3078 
Q 3713 2572 3713 1747 
Q 3713 922 3314 415 
Q 2916 -91 2278 -91 
Q 1894 -91 1617 61 
Q 1341 213 1159 525 
L 1159 0 
L 581 0 
L 581 4863 
L 1159 4863 
L 1159 2969 
z
" transform="scale(0.015625)"/>
       </defs>
       <use xlink:href="#DejaVuSans-52"/>
       <use xlink:href="#DejaVuSans-62" transform="translate(69.482422 0)"/>
       <use xlink:href="#DejaVuSans-63" transform="translate(132.958984 0)"/>
       <use xlink:href="#DejaVuSans-69" transform="translate(187.939453 0)"/>
       <use xlink:href="#DejaVuSans-6f" transform="translate(215.722656 0)"/>
       <use xlink:href="#DejaVuSans-72" transform="translate(276.904297 0)"/>
       <use xlink:href="#DejaVuSans-20" transform="translate(318.017578 0)"/>
       <use xlink:href="#DejaVuSans-43" transform="translate(349.804688 0)"/>
       <use xlink:href="#DejaVuSans-61" transform="translate(419.628906 0)"/>
       <use xlink:href="#DejaVuSans-6d" transform="translate(480.908203 0)"/>
       <use xlink:href="#DejaVuSans-65" transform="translate(578.320312 0)"/>
       <use xlink:href="#DejaVuSans-72" transform="translate(639.84375 0)"/>
       <use xlink:href="#DejaVuSans-61" transform="translate(680.957031 0)"/>
      </g>
     </g>
    </g>
    <g id="xtick_16">
     <g id="line2d_40">
      <g>
       <use xlink:href="#ma4300782d9" x="681.150331" y="712.206757" style="stroke: #000000; stroke-width: 0.8"/>
      </g>
     </g>
     <g id="text_29">
      <!-- TP-Link Tapo Camera -->
      <g transform="translate(646.101589 798.579493) rotate(-45) scale(0.1 -0.1)">
       <use xlink:href="#DejaVuSans-54"/>
       <use xlink:href="#DejaVuSans-50" transform="translate(61.083984 0)"/>
       <use xlink:href="#DejaVuSans-2d" transform="translate(119.136719 0)"/>
       <use xlink:href="#DejaVuSans-4c" transform="translate(155.220703 0)"/>
       <use xlink:href="#DejaVuSans-69" transform="translate(210.933594 0)"/>
       <use xlink:href="#DejaVuSans-6e" transform="translate(238.716797 0)"/>
       <use xlink:href="#DejaVuSans-6b" transform="translate(302.095703 0)"/>
       <use xlink:href="#DejaVuSans-20" transform="translate(360.005859 0)"/>
       <use xlink:href="#DejaVuSans-54" transform="translate(391.792969 0)"/>
       <use xlink:href="#DejaVuSans-61" transform="translate(436.376953 0)"/>
       <use xlink:href="#DejaVuSans-70" transform="translate(497.65625 0)"/>
       <use xlink:href="#DejaVuSans-6f" transform="translate(561.132812 0)"/>
       <use xlink:href="#DejaVuSans-20" transform="translate(622.314453 0)"/>
       <use xlink:href="#DejaVuSans-43" transform="translate(654.101562 0)"/>
       <use xlink:href="#DejaVuSans-61" transform="translate(723.925781 0)"/>
       <use xlink:href="#DejaVuSans-6d" transform="translate(785.205078 0)"/>
       <use xlink:href="#DejaVuSans-65" transform="translate(882.617188 0)"/>
       <use xlink:href="#DejaVuSans-72" transform="translate(944.140625 0)"/>
       <use xlink:href="#DejaVuSans-61" transform="translate(985.253906 0)"/>
      </g>
     </g>
    </g>
    <g id="xtick_17">
     <g id="line2d_41">
      <g>
       <use xlink:href="#ma4300782d9" x="747.52405" y="712.206757" style="stroke: #000000; stroke-width: 0.8"/>
      </g>
     </g>
     <g id="text_30">
      <!-- Wyze Camera -->
      <g transform="translate(724.919282 773.691544) rotate(-45) scale(0.1 -0.1)">
       <use xlink:href="#DejaVuSans-57"/>
       <use xlink:href="#DejaVuSans-79" transform="translate(97.126953 0)"/>
       <use xlink:href="#DejaVuSans-7a" transform="translate(156.306641 0)"/>
       <use xlink:href="#DejaVuSans-65" transform="translate(208.796875 0)"/>
       <use xlink:href="#DejaVuSans-20" transform="translate(270.320312 0)"/>
       <use xlink:href="#DejaVuSans-43" transform="translate(302.107422 0)"/>
       <use xlink:href="#DejaVuSans-61" transform="translate(371.931641 0)"/>
       <use xlink:href="#DejaVuSans-6d" transform="translate(433.210938 0)"/>
       <use xlink:href="#DejaVuSans-65" transform="translate(530.623047 0)"/>
       <use xlink:href="#DejaVuSans-72" transform="translate(592.146484 0)"/>
       <use xlink:href="#DejaVuSans-61" transform="translate(633.259766 0)"/>
      </g>
     </g>
    </g>
    <g id="xtick_18">
     <g id="line2d_42">
      <g>
       <use xlink:href="#ma4300782d9" x="813.897769" y="712.206757" style="stroke: #000000; stroke-width: 0.8"/>
      </g>
     </g>
     <g id="text_31">
      <!-- Yi Indoor Camera -->
      <g transform="translate(785.405232 785.467081) rotate(-45) scale(0.1 -0.1)">
       <defs>
        <path id="DejaVuSans-59" d="M -13 4666 
L 666 4666 
L 1959 2747 
L 3244 4666 
L 3922 4666 
L 2272 2222 
L 2272 0 
L 1638 0 
L 1638 2222 
L -13 4666 
z
" transform="scale(0.015625)"/>
       </defs>
       <use xlink:href="#DejaVuSans-59"/>
       <use xlink:href="#DejaVuSans-69" transform="translate(57.458984 0)"/>
       <use xlink:href="#DejaVuSans-20" transform="translate(85.242188 0)"/>
       <use xlink:href="#DejaVuSans-49" transform="translate(117.029297 0)"/>
       <use xlink:href="#DejaVuSans-6e" transform="translate(146.521484 0)"/>
       <use xlink:href="#DejaVuSans-64" transform="translate(209.900391 0)"/>
       <use xlink:href="#DejaVuSans-6f" transform="translate(273.376953 0)"/>
       <use xlink:href="#DejaVuSans-6f" transform="translate(334.558594 0)"/>
       <use xlink:href="#DejaVuSans-72" transform="translate(395.740234 0)"/>
       <use xlink:href="#DejaVuSans-20" transform="translate(436.853516 0)"/>
       <use xlink:href="#DejaVuSans-43" transform="translate(468.640625 0)"/>
       <use xlink:href="#DejaVuSans-61" transform="translate(538.464844 0)"/>
       <use xlink:href="#DejaVuSans-6d" transform="translate(599.744141 0)"/>
       <use xlink:href="#DejaVuSans-65" transform="translate(697.15625 0)"/>
       <use xlink:href="#DejaVuSans-72" transform="translate(758.679688 0)"/>
       <use xlink:href="#DejaVuSans-61" transform="translate(799.792969 0)"/>
      </g>
     </g>
    </g>
    <g id="text_32">
     <!-- Camera Model -->
     <g transform="translate(405.373252 848.983137) scale(0.12 -0.12)">
      <use xlink:href="#DejaVuSans-43"/>
      <use xlink:href="#DejaVuSans-61" transform="translate(69.824219 0)"/>
      <use xlink:href="#DejaVuSans-6d" transform="translate(131.103516 0)"/>
      <use xlink:href="#DejaVuSans-65" transform="translate(228.515625 0)"/>
      <use xlink:href="#DejaVuSans-72" transform="translate(290.039062 0)"/>
      <use xlink:href="#DejaVuSans-61" transform="translate(331.152344 0)"/>
      <use xlink:href="#DejaVuSans-20" transform="translate(392.431641 0)"/>
      <use xlink:href="#DejaVuSans-4d" transform="translate(424.21875 0)"/>
      <use xlink:href="#DejaVuSans-6f" transform="translate(510.498047 0)"/>
      <use xlink:href="#DejaVuSans-64" transform="translate(571.679688 0)"/>
      <use xlink:href="#DejaVuSans-65" transform="translate(635.15625 0)"/>
      <use xlink:href="#DejaVuSans-6c" transform="translate(696.679688 0)"/>
     </g>
    </g>
   </g>
   <g id="matplotlib.axis_4">
    <g id="ytick_7">
     <g id="line2d_43">
      <g>
       <use xlink:href="#mdab6080482" x="50.6" y="712.206757" style="stroke: #000000; stroke-width: 0.8"/>
      </g>
     </g>
     <g id="text_33">
      <!-- 0.0 -->
      <g transform="translate(27.696875 716.005975) scale(0.1 -0.1)">
       <use xlink:href="#DejaVuSans-30"/>
       <use xlink:href="#DejaVuSans-2e" transform="translate(63.623047 0)"/>
       <use xlink:href="#DejaVuSans-30" transform="translate(95.410156 0)"/>
      </g>
     </g>
    </g>
    <g id="ytick_8">
     <g id="line2d_44">
      <g>
       <use xlink:href="#mdab6080482" x="50.6" y="654.030997" style="stroke: #000000; stroke-width: 0.8"/>
      </g>
     </g>
     <g id="text_34">
      <!-- 0.2 -->
      <g transform="translate(27.696875 657.830215) scale(0.1 -0.1)">
       <use xlink:href="#DejaVuSans-30"/>
       <use xlink:href="#DejaVuSans-2e" transform="translate(63.623047 0)"/>
       <use xlink:href="#DejaVuSans-32" transform="translate(95.410156 0)"/>
      </g>
     </g>
    </g>
    <g id="ytick_9">
     <g id="line2d_45">
      <g>
       <use xlink:href="#mdab6080482" x="50.6" y="595.855236" style="stroke: #000000; stroke-width: 0.8"/>
      </g>
     </g>
     <g id="text_35">
      <!-- 0.4 -->
      <g transform="translate(27.696875 599.654455) scale(0.1 -0.1)">
       <use xlink:href="#DejaVuSans-30"/>
       <use xlink:href="#DejaVuSans-2e" transform="translate(63.623047 0)"/>
       <use xlink:href="#DejaVuSans-34" transform="translate(95.410156 0)"/>
      </g>
     </g>
    </g>
    <g id="ytick_10">
     <g id="line2d_46">
      <g>
       <use xlink:href="#mdab6080482" x="50.6" y="537.679476" style="stroke: #000000; stroke-width: 0.8"/>
      </g>
     </g>
     <g id="text_36">
      <!-- 0.6 -->
      <g transform="translate(27.696875 541.478695) scale(0.1 -0.1)">
       <use xlink:href="#DejaVuSans-30"/>
       <use xlink:href="#DejaVuSans-2e" transform="translate(63.623047 0)"/>
       <use xlink:href="#DejaVuSans-36" transform="translate(95.410156 0)"/>
      </g>
     </g>
    </g>
    <g id="ytick_11">
     <g id="line2d_47">
      <g>
       <use xlink:href="#mdab6080482" x="50.6" y="479.503716" style="stroke: #000000; stroke-width: 0.8"/>
      </g>
     </g>
     <g id="text_37">
      <!-- 0.8 -->
      <g transform="translate(27.696875 483.302935) scale(0.1 -0.1)">
       <use xlink:href="#DejaVuSans-30"/>
       <use xlink:href="#DejaVuSans-2e" transform="translate(63.623047 0)"/>
       <use xlink:href="#DejaVuSans-38" transform="translate(95.410156 0)"/>
      </g>
     </g>
    </g>
    <g id="ytick_12">
     <g id="line2d_48">
      <g>
       <use xlink:href="#mdab6080482" x="50.6" y="421.327956" style="stroke: #000000; stroke-width: 0.8"/>
      </g>
     </g>
     <g id="text_38">
      <!-- 1.0 -->
      <g transform="translate(27.696875 425.127175) scale(0.1 -0.1)">
       <use xlink:href="#DejaVuSans-31"/>
       <use xlink:href="#DejaVuSans-2e" transform="translate(63.623047 0)"/>
       <use xlink:href="#DejaVuSans-30" transform="translate(95.410156 0)"/>
      </g>
     </g>
    </g>
    <g id="text_39">
     <!-- Metric Value -->
     <g transform="translate(21.20125 597.108192) rotate(-90) scale(0.12 -0.12)">
      <use xlink:href="#DejaVuSans-4d"/>
      <use xlink:href="#DejaVuSans-65" transform="translate(86.279297 0)"/>
      <use xlink:href="#DejaVuSans-74" transform="translate(147.802734 0)"/>
      <use xlink:href="#DejaVuSans-72" transform="translate(187.011719 0)"/>
      <use xlink:href="#DejaVuSans-69" transform="translate(228.125 0)"/>
      <use xlink:href="#DejaVuSans-63" transform="translate(255.908203 0)"/>
      <use xlink:href="#DejaVuSans-20" transform="translate(310.888672 0)"/>
      <use xlink:href="#DejaVuSans-56" transform="translate(342.675781 0)"/>
      <use xlink:href="#DejaVuSans-61" transform="translate(403.333984 0)"/>
      <use xlink:href="#DejaVuSans-6c" transform="translate(464.613281 0)"/>
      <use xlink:href="#DejaVuSans-75" transform="translate(492.396484 0)"/>
      <use xlink:href="#DejaVuSans-65" transform="translate(555.775391 0)"/>
     </g>
    </g>
   </g>
   <g id="patch_72">
    <path d="M 50.6 712.206757 
L 50.6 407.934003 
" style="fill: none; stroke: #000000; stroke-width: 0.8; stroke-linejoin: miter; stroke-linecap: square"/>
   </g>
   <g id="patch_73">
    <path d="M 847.084628 712.206757 
L 847.084628 407.934003 
" style="fill: none; stroke: #000000; stroke-width: 0.8; stroke-linejoin: miter; stroke-linecap: square"/>
   </g>
   <g id="patch_74">
    <path d="M 50.6 712.206757 
L 847.084628 712.206757 
" style="fill: none; stroke: #000000; stroke-width: 0.8; stroke-linejoin: miter; stroke-linecap: square"/>
   </g>
   <g id="patch_75">
    <path d="M 50.6 407.934003 
L 847.084628 407.934003 
" style="fill: none; stroke: #000000; stroke-width: 0.8; stroke-linejoin: miter; stroke-linecap: square"/>
   </g>
   <g id="text_40">
    <!-- Performance Metrics per Camera Model - 2-Model System -->
    <g transform="translate(246.761064 401.934003) scale(0.14 -0.14)">
     <use xlink:href="#DejaVuSans-50"/>
     <use xlink:href="#DejaVuSans-65" transform="translate(56.677734 0)"/>
     <use xlink:href="#DejaVuSans-72" transform="translate(118.201172 0)"/>
     <use xlink:href="#DejaVuSans-66" transform="translate(159.314453 0)"/>
     <use xlink:href="#DejaVuSans-6f" transform="translate(194.519531 0)"/>
     <use xlink:href="#DejaVuSans-72" transform="translate(255.701172 0)"/>
     <use xlink:href="#DejaVuSans-6d" transform="translate(295.064453 0)"/>
     <use xlink:href="#DejaVuSans-61" transform="translate(392.476562 0)"/>
     <use xlink:href="#DejaVuSans-6e" transform="translate(453.755859 0)"/>
     <use xlink:href="#DejaVuSans-63" transform="translate(517.134766 0)"/>
     <use xlink:href="#DejaVuSans-65" transform="translate(572.115234 0)"/>
     <use xlink:href="#DejaVuSans-20" transform="translate(633.638672 0)"/>
     <use xlink:href="#DejaVuSans-4d" transform="translate(665.425781 0)"/>
     <use xlink:href="#DejaVuSans-65" transform="translate(751.705078 0)"/>
     <use xlink:href="#DejaVuSans-74" transform="translate(813.228516 0)"/>
     <use xlink:href="#DejaVuSans-72" transform="translate(852.4375 0)"/>
     <use xlink:href="#DejaVuSans-69" transform="translate(893.550781 0)"/>
     <use xlink:href="#DejaVuSans-63" transform="translate(921.333984 0)"/>
     <use xlink:href="#DejaVuSans-73" transform="translate(976.314453 0)"/>
     <use xlink:href="#DejaVuSans-20" transform="translate(1028.414062 0)"/>
     <use xlink:href="#DejaVuSans-70" transform="translate(1060.201172 0)"/>
     <use xlink:href="#DejaVuSans-65" transform="translate(1123.677734 0)"/>
     <use xlink:href="#DejaVuSans-72" transform="translate(1185.201172 0)"/>
     <use xlink:href="#DejaVuSans-20" transform="translate(1226.314453 0)"/>
     <use xlink:href="#DejaVuSans-43" transform="translate(1258.101562 0)"/>
     <use xlink:href="#DejaVuSans-61" transform="translate(1327.925781 0)"/>
     <use xlink:href="#DejaVuSans-6d" transform="translate(1389.205078 0)"/>
     <use xlink:href="#DejaVuSans-65" transform="translate(1486.617188 0)"/>
     <use xlink:href="#DejaVuSans-72" transform="translate(1548.140625 0)"/>
     <use xlink:href="#DejaVuSans-61" transform="translate(1589.253906 0)"/>
     <use xlink:href="#DejaVuSans-20" transform="translate(1650.533203 0)"/>
     <use xlink:href="#DejaVuSans-4d" transform="translate(1682.320312 0)"/>
     <use xlink:href="#DejaVuSans-6f" transform="translate(1768.599609 0)"/>
     <use xlink:href="#DejaVuSans-64" transform="translate(1829.78125 0)"/>
     <use xlink:href="#DejaVuSans-65" transform="translate(1893.257812 0)"/>
     <use xlink:href="#DejaVuSans-6c" transform="translate(1954.78125 0)"/>
     <use xlink:href="#DejaVuSans-20" transform="translate(1982.564453 0)"/>
     <use xlink:href="#DejaVuSans-2d" transform="translate(2014.351562 0)"/>
     <use xlink:href="#DejaVuSans-20" transform="translate(2050.435547 0)"/>
     <use xlink:href="#DejaVuSans-32" transform="translate(2082.222656 0)"/>
     <use xlink:href="#DejaVuSans-2d" transform="translate(2145.845703 0)"/>
     <use xlink:href="#DejaVuSans-4d" transform="translate(2181.929688 0)"/>
     <use xlink:href="#DejaVuSans-6f" transform="translate(2268.208984 0)"/>
     <use xlink:href="#DejaVuSans-64" transform="translate(2329.390625 0)"/>
     <use xlink:href="#DejaVuSans-65" transform="translate(2392.867188 0)"/>
     <use xlink:href="#DejaVuSans-6c" transform="translate(2454.390625 0)"/>
     <use xlink:href="#DejaVuSans-20" transform="translate(2482.173828 0)"/>
     <use xlink:href="#DejaVuSans-53" transform="translate(2513.960938 0)"/>
     <use xlink:href="#DejaVuSans-79" transform="translate(2577.4375 0)"/>
     <use xlink:href="#DejaVuSans-73" transform="translate(2636.617188 0)"/>
     <use xlink:href="#DejaVuSans-74" transform="translate(2688.716797 0)"/>
     <use xlink:href="#DejaVuSans-65" transform="translate(2727.925781 0)"/>
     <use xlink:href="#DejaVuSans-6d" transform="translate(2789.449219 0)"/>
    </g>
   </g>
   <g id="legend_2">
    <g id="patch_76">
     <path d="M 763.470566 474.646503 
L 840.084628 474.646503 
Q 842.084628 474.646503 842.084628 472.646503 
L 842.084628 414.934003 
Q 842.084628 412.934003 840.084628 412.934003 
L 763.470566 412.934003 
Q 761.470566 412.934003 761.470566 414.934003 
L 761.470566 472.646503 
Q 761.470566 474.646503 763.470566 474.646503 
z
" style="fill: #ffffff; opacity: 0.8; stroke: #cccccc; stroke-linejoin: miter"/>
    </g>
    <g id="text_41">
     <!-- Metrics -->
     <g transform="translate(783.628378 424.532441) scale(0.1 -0.1)">
      <use xlink:href="#DejaVuSans-4d"/>
      <use xlink:href="#DejaVuSans-65" transform="translate(86.279297 0)"/>
      <use xlink:href="#DejaVuSans-74" transform="translate(147.802734 0)"/>
      <use xlink:href="#DejaVuSans-72" transform="translate(187.011719 0)"/>
      <use xlink:href="#DejaVuSans-69" transform="translate(228.125 0)"/>
      <use xlink:href="#DejaVuSans-63" transform="translate(255.908203 0)"/>
      <use xlink:href="#DejaVuSans-73" transform="translate(310.888672 0)"/>
     </g>
    </g>
    <g id="patch_77">
     <path d="M 765.470566 439.210566 
L 785.470566 439.210566 
L 785.470566 432.210566 
L 765.470566 432.210566 
z
" style="fill: #6e2f9e"/>
    </g>
    <g id="text_42">
     <!-- Precision -->
     <g transform="translate(793.470566 439.210566) scale(0.1 -0.1)">
      <use xlink:href="#DejaVuSans-50"/>
      <use xlink:href="#DejaVuSans-72" transform="translate(58.552734 0)"/>
      <use xlink:href="#DejaVuSans-65" transform="translate(97.416016 0)"/>
      <use xlink:href="#DejaVuSans-63" transform="translate(158.939453 0)"/>
      <use xlink:href="#DejaVuSans-69" transform="translate(213.919922 0)"/>
      <use xlink:href="#DejaVuSans-73" transform="translate(241.703125 0)"/>
      <use xlink:href="#DejaVuSans-69" transform="translate(293.802734 0)"/>
      <use xlink:href="#DejaVuSans-6f" transform="translate(321.585938 0)"/>
      <use xlink:href="#DejaVuSans-6e" transform="translate(382.767578 0)"/>
     </g>
    </g>
    <g id="patch_78">
     <path d="M 765.470566 453.888691 
L 785.470566 453.888691 
L 785.470566 446.888691 
L 765.470566 446.888691 
z
" style="fill: #d95656"/>
    </g>
    <g id="text_43">
     <!-- Recall -->
     <g transform="translate(793.470566 453.888691) scale(0.1 -0.1)">
      <use xlink:href="#DejaVuSans-52"/>
      <use xlink:href="#DejaVuSans-65" transform="translate(64.982422 0)"/>
      <use xlink:href="#DejaVuSans-63" transform="translate(126.505859 0)"/>
      <use xlink:href="#DejaVuSans-61" transform="translate(181.486328 0)"/>
      <use xlink:href="#DejaVuSans-6c" transform="translate(242.765625 0)"/>
      <use xlink:href="#DejaVuSans-6c" transform="translate(270.548828 0)"/>
     </g>
    </g>
    <g id="patch_79">
     <path d="M 765.470566 468.566816 
L 785.470566 468.566816 
L 785.470566 461.566816 
L 765.470566 461.566816 
z
" style="fill: #e5a34c"/>
    </g>
    <g id="text_44">
     <!-- F1-Score -->
     <g transform="translate(793.470566 468.566816) scale(0.1 -0.1)">
      <use xlink:href="#DejaVuSans-46"/>
      <use xlink:href="#DejaVuSans-31" transform="translate(57.519531 0)"/>
      <use xlink:href="#DejaVuSans-2d" transform="translate(121.142578 0)"/>
      <use xlink:href="#DejaVuSans-53" transform="translate(157.226562 0)"/>
      <use xlink:href="#DejaVuSans-63" transform="translate(220.703125 0)"/>
      <use xlink:href="#DejaVuSans-6f" transform="translate(275.683594 0)"/>
      <use xlink:href="#DejaVuSans-72" transform="translate(336.865234 0)"/>
      <use xlink:href="#DejaVuSans-65" transform="translate(375.728516 0)"/>
     </g>
    </g>
   </g>
  </g>
 </g>
 <defs>
  <clipPath id="pb00b2c06bc">
   <rect x="50.6" y="27.6" width="796.484628" height="304.272753"/>
  </clipPath>
  <clipPath id="p7ab96a4bc8">
   <rect x="50.6" y="407.934003" width="796.484628" height="304.272753"/>
  </clipPath>
 </defs>
</svg>
